<?xml version="1.0" encoding="utf-8"?>
<!-- Generator: Adobe Illustrator 23.0.5, SVG Export Plug-In . SVG Version: 6.00 Build 0)  -->
<svg version="1.1" id="Layer_1" xmlns="http://www.w3.org/2000/svg" xmlns:xlink="http://www.w3.org/1999/xlink" x="0px" y="0px"
	 viewBox="0 0 100 100" style="enable-background:new 0 0 100 100;" xml:space="preserve">
<style type="text/css">
	.st0{fill:#F57F20;}
	.st1{fill:#E6E7E8;}
	.st2{fill:#CAE0F4;}
	.st3{fill:#ABCBEB;}
	.st4{fill:#799DD2;}
	.st5{fill:#91B1DD;}
	.st6{fill:#DBDFE8;}
	.st7{fill:#C3C6D4;}
	.st8{fill:#625046;}
	.st9{fill:#5E609A;}
	.st10{fill:#4D3F36;}
	.st11{fill:#7B563D;}
	.st12{fill:#6A442A;}
	.st13{fill:#4D4A82;}
	.st14{clip-path:url(#SVGID_1_);}
	.st15{fill:#EFDCC5;}
	.st16{opacity:0.5;fill:#F7EBDF;}
	.st17{fill:#FCFAF3;}
	.st18{fill:#FFFFFF;}
	.st19{fill:#A28CC2;}
	.st20{fill:#758BC6;}
	.st21{fill:#F2708D;}
	.st22{fill:#C9C94F;}
	.st23{fill:#FFCA2F;}
	.st24{fill:#F7EBDF;}
	.st25{fill:#E8AC7A;}
	.st26{fill:#90A2CF;}
	.st27{fill:#EFBB8F;}
	.st28{fill:#0F1118;}
	.st29{fill:#2F3134;}
	.st30{fill:#B1B54E;}
	.st31{fill:#595B89;}
	.st32{fill:#8380A8;}
	.st33{opacity:0.3;fill:#FFFFFF;}
	.st34{fill:#85452B;}
	.st35{fill:#6F3420;}
	.st36{fill:#DCEBF8;}
	.st37{fill:#7FB8E4;}
	.st38{opacity:0.5;}
	.st39{fill:#FAA31A;}
	.st40{fill:#FFD766;}
	.st41{fill:#EE7A2A;}
	.st42{fill:#E37125;}
	.st43{fill:#8B79B7;}
	.st44{opacity:0.5;fill:#F5F1E2;}
	.st45{fill:#F5F1E2;}
	.st46{fill:#2A3B51;}
	.st47{fill:#D7A276;}
	.st48{fill:#8C6E5D;}
	.st49{fill:#816351;}
	.st50{opacity:0.4;fill:url(#SVGID_2_);}
	.st51{opacity:0.4;fill:url(#SVGID_3_);}
	.st52{fill:#CD4E37;}
	.st53{fill:#B83F2D;}
	.st54{fill:#6F72B5;}
</style>
<circle class="st0" cx="50" cy="50" r="50"/>
<g>
	<g>
		<path class="st2" d="M41.59,33.54c0.58-4.7,1.53-13.31-1.07-16.03c-2.65-2.77-17.84-1.05-18.47,4.43
			c-0.63,5.47,3.24,11.69,5.08,13.83L41.59,33.54z"/>
		<path class="st3" d="M41.6,33.58c0.61-4.48,1.6-12.79-0.98-15.37c-2.63-2.62-17.81-0.85-18.48,4.38
			c-0.67,5.22,3.17,11.15,4.99,13.18L41.6,33.58z"/>
		<path class="st4" d="M40.73,33.75c0.52-4.21,1.39-12.11-0.94-14.55c-2.37-2.48-15.96-0.85-16.53,4.05
			c-0.57,4.9,3.02,10.5,4.66,12.41L40.73,33.75z"/>
		<path class="st5" d="M40.55,33.78c0.5-4.16,1.34-12.01-0.94-14.42c-2.32-2.46-15.57-0.86-16.11,3.99c-0.54,4.85,3,10.39,4.6,12.28
			L40.55,33.78z"/>
	</g>
	<path class="st4" d="M25.68,31.04c0.16-1.46,1.92-1.85,6.69-2.47c4.76-0.61,8.08-1.53,8.31,2.59c0.22,4.12-13.83,1.86-13.83,1.86
		L25.68,31.04z"/>
	<g>
		<path class="st2" d="M63.75,34.35c1.5-4.49,4.13-12.74,2.11-15.92c-2.05-3.23-17.28-4.54-18.98,0.7
			c-1.7,5.24,0.87,12.1,2.25,14.55L63.75,34.35z"/>
		<path class="st3" d="M63.74,34.38c1.49-4.27,4.09-12.22,2.07-15.26c-2.06-3.09-17.29-4.34-18.98,0.65s0.91,11.56,2.29,13.9
			L63.74,34.38z"/>
		<path class="st4" d="M62.86,34.38c1.34-4.02,3.75-11.6,1.94-14.45c-1.84-2.9-15.48-3.98-17,0.71c-1.52,4.69,0.89,10.89,2.13,13.09
			L62.86,34.38z"/>
		<path class="st5" d="M62.67,34.37c1.31-3.98,3.68-11.51,1.92-14.33c-1.79-2.86-15.1-3.91-16.59,0.74
			c-1.49,4.65,0.89,10.77,2.09,12.95L62.67,34.37z"/>
	</g>
	<path class="st6" d="M50.66,24.65C50.29,25.49,49.57,34,49.57,34l4.44,0.45c0,0,1.5-3.7,1.79-3.73c0.29-0.03,0.86-0.1,1.12,0.34
		c0.26,0.44,1.44,3.39,1.44,3.39l4.01,0.39c0,0,0.88-5.17,0.86-7.58c-0.02-2.42-1.9-4.5-4.77-4.93
		C55.58,21.89,52.05,21.49,50.66,24.65z"/>
	<path class="st7" d="M57.72,29.91c-0.34-0.44-1.74-0.22-2.46,0c-0.7,0.21-2.32,3.74-2.54,4.41l1.3,0.13c0,0,1.5-3.7,1.79-3.73
		c0.29-0.03,0.86-0.1,1.12,0.34c0.26,0.44,1.44,3.39,1.44,3.39l1.43,0.14C59.24,33.26,57.98,30.25,57.72,29.91z"/>
	<g>
		<path class="st2" d="M59.45,66.45c-1.14,4.59-3.12,13.03-0.86,16.04c2.3,3.06,17.58,3.18,18.87-2.18c1.28-5.36-1.82-12-3.38-14.33
			L59.45,66.45z"/>
		<path class="st3" d="M59.45,66.41c-1.15,4.38-3.13,12.5-0.87,15.37c2.3,2.92,17.58,2.98,18.87-2.13
			c1.29-5.11-1.81-11.45-3.37-13.68L59.45,66.41z"/>
		<path class="st4" d="M60.33,66.34c-1.02,4.11-2.84,11.86-0.81,14.56c2.06,2.74,15.75,2.77,16.89-2.03
			c1.15-4.8-1.74-10.79-3.14-12.88L60.33,66.34z"/>
		<path class="st5" d="M60.52,66.33c-1,4.07-2.77,11.76-0.8,14.43c2.01,2.72,15.36,2.72,16.48-2.03c1.12-4.75-1.73-10.67-3.09-12.74
			L60.52,66.33z"/>
	</g>
	<g>
		<path class="st2" d="M78.18,54.15c4.78,1.13,13.57,3.08,16.67,0.7c3.15-2.42,3.09-18.3-2.49-19.57
			c-5.58-1.27-12.44,2.03-14.85,3.68L78.18,54.15z"/>
		<path class="st3" d="M78.14,54.15c4.56,1.14,13.02,3.1,15.97,0.72c3-2.42,2.88-18.29-2.44-19.57c-5.32-1.28-11.87,2.01-14.17,3.66
			L78.14,54.15z"/>
		<path class="st4" d="M78.06,53.24c4.28,1.01,12.35,2.8,15.13,0.67c2.82-2.17,2.68-16.38-2.31-17.52c-5-1.14-11.18,1.94-13.34,3.42
			L78.06,53.24z"/>
		<path class="st5" d="M78.05,53.04c4.24,0.99,12.25,2.74,15,0.65c2.8-2.12,2.64-15.98-2.31-17.09c-4.95-1.11-11.06,1.92-13.2,3.37
			L78.05,53.04z"/>
	</g>
	<path class="st8" d="M62.77,75.96c-1.8-1-0.48-8.86-0.48-8.86l7.28-0.76c0,0,3.71,5.53,2.42,7.95
		C70.7,76.72,62.77,75.96,62.77,75.96z"/>
	<polygon class="st9" points="86.9,51.04 79.39,50.36 79.14,39.54 87.23,39.73 	"/>
	<path class="st10" d="M72.17,73.83c0.68-2.6-2.6-7.48-2.6-7.48l-7.28,0.76c0,0-0.04,0.23-0.09,0.62l7.26-0.11
		c0,0,1.95,4.53,1.74,5.61C71.08,73.84,71.66,73.9,72.17,73.83z"/>
	<g>
		<path class="st2" d="M20.77,41.89c-4.65-0.86-13.2-2.3-16.06,0.14c-2.91,2.48-2.08,17.75,3.34,18.7
			c5.43,0.95,11.86-2.56,14.1-4.26L20.77,41.89z"/>
		<path class="st3" d="M20.81,41.89c-4.44-0.87-12.67-2.34-15.4,0.09c-2.77,2.47-1.88,17.73,3.29,18.7
			c5.18,0.97,11.32-2.52,13.44-4.21L20.81,41.89z"/>
		<path class="st4" d="M20.93,42.76C16.76,42,8.91,40.67,6.35,42.86C3.74,45.08,4.56,58.75,9.42,59.6
			c4.86,0.85,10.66-2.41,12.66-3.93L20.93,42.76z"/>
		<path class="st5" d="M20.95,42.95c-4.13-0.74-11.91-2.04-14.45,0.1c-2.59,2.17-1.76,15.5,3.05,16.32
			c4.81,0.82,10.54-2.39,12.53-3.88L20.95,42.95z"/>
	</g>
	<g>
		<path class="st2" d="M33.42,66.45c-1.14,4.59-3.12,13.03-0.86,16.04c2.3,3.06,17.58,3.18,18.87-2.18s-1.82-12-3.38-14.34
			L33.42,66.45z"/>
		<path class="st3" d="M33.42,66.41c-1.15,4.38-3.13,12.5-0.87,15.37c2.3,2.92,17.58,2.98,18.87-2.13
			c1.29-5.11-1.81-11.45-3.37-13.68L33.42,66.41z"/>
		<path class="st4" d="M34.31,66.35c-1.02,4.11-2.84,11.86-0.81,14.56c2.06,2.74,15.75,2.76,16.9-2.03
			c1.15-4.8-1.74-10.79-3.14-12.88L34.31,66.35z"/>
		<path class="st5" d="M34.49,66.34c-1,4.07-2.77,11.76-0.8,14.43c2.01,2.72,15.36,2.72,16.48-2.03c1.12-4.75-1.73-10.67-3.09-12.74
			L34.49,66.34z"/>
	</g>
	<path class="st11" d="M47.23,75.1c0.3-0.87,0.35-9.41,0.35-9.41l-4.46-0.1c0,0-1.21,3.81-1.49,3.86c-0.28,0.05-0.85,0.17-1.14-0.25
		c-0.3-0.42-1.7-3.27-1.7-3.27l-4.03-0.08c0,0-0.47,5.22-0.26,7.63c0.21,2.41,2.25,4.34,5.14,4.54S46.09,78.35,47.23,75.1z"/>
	<path class="st12" d="M41.63,69.45c-0.28,0.05-0.85,0.17-1.14-0.25c-0.2-0.29-0.94-1.73-1.37-2.6l-1.61,0.05
		c0.78,2.11,2.11,3.78,2.89,4.04c0.78,0.26,1.88-0.02,2.14-0.31c0.26-0.29,1.7-3.93,1.7-3.93l-1.4,0.04
		C42.45,67.62,41.82,69.41,41.63,69.45z"/>
	<path class="st13" d="M14.14,55.64c2.18,1.16,4.92,0.31,7.05-1.22l-0.9-10.3c0,0-5.08-1.74-7.6-0.09
		C10.17,45.67,14.14,55.64,14.14,55.64z"/>
	<g>
		<g>
			<defs>
				<polygon id="SVGID_5_" points="18.24,29.76 22.54,68.95 78.32,66.51 83.27,32.77 				"/>
			</defs>
			<use xlink:href="#SVGID_5_"  style="overflow:visible;fill:#F8F3E0;"/>
			<clipPath id="SVGID_1_">
				<use xlink:href="#SVGID_5_"  style="overflow:visible;"/>
			</clipPath>
			<g class="st14">
				<g>
					<path class="st15" d="M77.44,36.69c-5.2,0-11.43-0.96-17.91-1.96c-3.45-0.53-7.02-1.08-10.5-1.49
						c-5.99-0.71-11.64-0.1-16.64,0.44c-6.07,0.66-10.86,1.17-13.89-0.87l0.12-0.18c2.96,2,7.72,1.49,13.75,0.84
						c5-0.54,10.68-1.15,16.69-0.44c3.48,0.41,7.05,0.96,10.51,1.49c9.73,1.5,18.92,2.92,24.8,1.11l0.06,0.21
						C82.43,36.45,80.07,36.69,77.44,36.69z"/>
				</g>
				<g>
					<path class="st15" d="M21.95,39.64c-2.81,0-4.68-0.51-4.71-0.52l0.06-0.21c0.07,0.02,6.88,1.88,14.14-1.61
						c5.04-2.43,9.1-3.23,11.62-3.48c0.67-0.07,1.27-0.1,1.79-0.11c-3.95-0.28-8,0.8-11.94,1.84c-5.38,1.42-10.46,2.77-14.72,0.54
						l0.1-0.19c4.19,2.19,9.23,0.86,14.57-0.55c4.79-1.27,9.75-2.58,14.53-1.48l-0.05,0.21c-0.06-0.01-6.23-1.2-15.81,3.41
						C27.99,39.2,24.56,39.64,21.95,39.64z"/>
				</g>
				<g>
					<path class="st15" d="M20.39,42.15c-0.52,0-0.98-0.05-1.38-0.16l0.06-0.21c3.66,1,13.63-3.21,15.59-4.07
						c10.37-4.51,14.16-3.77,24.29-1.79l0.4,0.08c4.07,0.79,7.54,1.83,10.6,2.75c4.79,1.43,8.92,2.67,13.31,2.33l0.02,0.22
						c-4.43,0.34-8.59-0.9-13.39-2.34c-3.05-0.91-6.52-1.95-10.58-2.74l-0.4-0.08c-10.08-1.97-13.85-2.71-24.16,1.78
						C32.99,38.69,24.78,42.15,20.39,42.15z"/>
				</g>
				<g>
					<path class="st15" d="M79.09,35.26c-6.17,0-13.13-1.34-19.45-2.55c-6.8-1.3-12.67-2.43-16.12-1.68
						c-8.15,1.78-18.56,1.3-25.32-1.18l0.07-0.2c6.73,2.46,17.09,2.94,25.21,1.17c3.49-0.76,9.38,0.37,16.2,1.68
						c8.43,1.62,17.98,3.45,25.25,2.05l0.04,0.21C83.14,35.11,81.16,35.26,79.09,35.26z"/>
				</g>
				<g>
					<path class="st15" d="M22.01,45.17c-1.3,0-2.33-0.17-3.01-0.53l0.1-0.19c2.24,1.18,9.51,0.37,18.58-3.46
						c1.48-0.63,2.8-1.23,4.08-1.81c5.95-2.72,9.88-4.52,16.88-1.82c3.76,1.45,7.32,1.96,10.18,2.37c3.61,0.52,6.21,0.89,7.05,2.76
						c0.22,0.49,0.18,0.89-0.12,1.19c-1.29,1.26-6.88,0.18-9.19-0.91c-0.8-0.38-1.19-0.74-1.16-1.07c0.09-0.99,2.76-1.13,4.54-0.99
						c1.85,0.15,3.98,0.68,3.91,1.67c-0.04,0.53-0.47,0.88-1.26,1.03c-1.54,0.28-4.31-0.36-4.75-1.31c-0.12-0.25-0.11-0.44,0-0.56
						c0.4-0.41,2.08,0.27,2.41,0.41l-0.08,0.2c-0.77-0.33-1.95-0.69-2.17-0.46c-0.06,0.07-0.02,0.21,0.04,0.32
						c0.38,0.8,2.95,1.48,4.52,1.19c0.47-0.09,1.04-0.3,1.08-0.83c0.05-0.67-1.48-1.26-3.71-1.44c-2.32-0.19-4.26,0.17-4.31,0.79
						c-0.01,0.11,0.07,0.41,1.03,0.86c1.19,0.56,3.13,1.08,4.94,1.32c2.04,0.27,3.49,0.14,4-0.36c0.24-0.23,0.26-0.54,0.08-0.95
						c-0.8-1.76-3.35-2.13-6.89-2.64c-2.87-0.41-6.45-0.92-10.23-2.38c-6.91-2.67-10.81-0.88-16.71,1.82
						c-1.28,0.58-2.6,1.19-4.08,1.81C31.79,43.71,25.79,45.17,22.01,45.17z"/>
				</g>
				<g>
					<path class="st15" d="M25.51,49.25c-2.44,0-4.87-0.64-7.33-2.27l0.12-0.18c6.72,4.43,13.26,1.4,20.2-1.81
						c1.62-0.75,3.29-1.52,4.97-2.2c7.74-3.13,13.88-1.22,20.38,0.81c0.9,0.28,1.84,0.57,2.78,0.85c6.26,1.84,11.33-0.1,14.35-1.26
						c0.59-0.23,1.11-0.42,1.52-0.55l0.06,0.21c-0.41,0.12-0.92,0.32-1.51,0.54c-3.05,1.17-8.16,3.13-14.49,1.26
						c-0.94-0.28-1.87-0.57-2.78-0.85c-6.46-2.01-12.57-3.91-20.24-0.81c-1.67,0.68-3.34,1.45-4.96,2.2
						C34.12,47.25,29.81,49.25,25.51,49.25z"/>
				</g>
				<g>
					<path class="st15" d="M18.96,51.05c0,0,0.17,0.05,0.5,0.13c0.16,0.05,0.36,0.1,0.6,0.13c0.24,0.04,0.51,0.08,0.82,0.09
						c0.62,0.05,1.37,0,2.23-0.13c0.86-0.13,1.81-0.37,2.88-0.57c0.54-0.09,1.1-0.16,1.7-0.13c0.6,0.04,1.21,0.26,1.73,0.65
						c0.25,0.2,0.49,0.5,0.53,0.86c0.04,0.36-0.1,0.71-0.29,0.99c-0.4,0.56-0.99,0.94-1.59,1.26c-1.22,0.61-2.64,0.93-4.08,0.89
						c-0.36-0.01-0.72-0.05-1.08-0.12c-0.36-0.07-0.71-0.16-1.05-0.34c-0.17-0.08-0.33-0.22-0.44-0.4c-0.12-0.19-0.1-0.44-0.02-0.62
						c0.16-0.38,0.46-0.62,0.74-0.85c0.59-0.44,1.25-0.76,1.92-1.03c0.67-0.26,1.37-0.46,2.08-0.56c0.36-0.05,0.72-0.07,1.08-0.03
						c0.18,0.02,0.36,0.06,0.54,0.13c0.15,0.07,0.33,0.16,0.48,0.28c0.14,0.13,0.26,0.31,0.28,0.52c0.02,0.21-0.04,0.4-0.13,0.56
						c-0.18,0.33-0.45,0.57-0.73,0.77c-0.56,0.41-1.2,0.66-1.84,0.82c-0.64,0.15-1.3,0.21-1.93,0.11c-0.16-0.04-0.33-0.07-0.48-0.19
						c-0.16-0.1-0.24-0.34-0.19-0.51c0.09-0.35,0.32-0.57,0.53-0.78c0.44-0.41,0.92-0.71,1.42-0.95c0.25-0.12,0.5-0.22,0.76-0.29
						c0.26-0.06,0.53-0.12,0.82,0c0.14,0.06,0.24,0.23,0.27,0.34c0.05,0.15,0.03,0.3-0.03,0.42c-0.12,0.25-0.31,0.4-0.5,0.53
						c-0.38,0.25-0.78,0.4-1.15,0.51c-0.19,0.05-0.37,0.1-0.55,0.12c-0.09,0.01-0.17,0.02-0.29,0.01c-0.01,0-0.03-0.01-0.06-0.02
						c-0.01-0.01-0.02-0.01-0.03-0.02c-0.02-0.01-0.03-0.03-0.04-0.06c-0.02-0.04-0.01-0.08,0-0.11c0.02-0.04,0.01-0.02,0.02-0.04
						c0.02-0.03,0.05-0.07,0.08-0.11c0.46-0.48,0.9-0.71,1.22-0.85c0.32-0.14,0.51-0.13,0.51-0.13l0,0c0,0-0.18,0.04-0.46,0.22
						c-0.14,0.09-0.31,0.2-0.5,0.35c-0.19,0.15-0.41,0.32-0.6,0.55c-0.02,0.03-0.04,0.05-0.06,0.09c0,0-0.02,0.03-0.01,0.01
						c0.01-0.02,0-0.03,0-0.06c0-0.01-0.01-0.02-0.02-0.03c0,0,0,0,0,0c0,0-0.01,0,0,0c0.05,0.01,0.14,0,0.21-0.01
						c0.16-0.02,0.34-0.06,0.51-0.12c0.35-0.11,0.73-0.25,1.09-0.48c0.17-0.12,0.34-0.26,0.42-0.44c0.04-0.09,0.05-0.19,0.02-0.27
						c-0.04-0.12-0.08-0.17-0.16-0.22c-0.17-0.08-0.43-0.05-0.66,0.02c-0.24,0.06-0.48,0.16-0.72,0.27
						c-0.47,0.23-0.95,0.53-1.36,0.92c-0.2,0.19-0.4,0.42-0.46,0.66c-0.07,0.24,0.2,0.38,0.47,0.43c0.59,0.1,1.22,0.05,1.84-0.1
						c0.61-0.15,1.23-0.41,1.76-0.79c0.26-0.19,0.51-0.42,0.66-0.69c0.16-0.27,0.14-0.59-0.1-0.79c-0.51-0.43-1.23-0.41-1.91-0.33
						c-0.69,0.1-1.37,0.3-2.03,0.55c-0.65,0.26-1.3,0.58-1.86,1c-0.27,0.21-0.54,0.45-0.66,0.75c-0.06,0.14-0.07,0.29,0.01,0.41
						c0.08,0.12,0.19,0.23,0.35,0.3c0.29,0.15,0.64,0.25,0.98,0.31c0.34,0.06,0.69,0.11,1.04,0.11c1.39,0.04,2.77-0.28,3.95-0.87
						c0.58-0.3,1.14-0.67,1.49-1.17c0.17-0.25,0.28-0.53,0.25-0.81c-0.03-0.28-0.21-0.51-0.43-0.69c-0.47-0.36-1.02-0.56-1.58-0.6
						c-0.56-0.04-1.11,0.03-1.64,0.12c-1.05,0.19-2.01,0.43-2.89,0.56c-0.87,0.13-1.65,0.18-2.28,0.12c-0.32-0.01-0.6-0.06-0.85-0.1
						c-0.25-0.03-0.45-0.08-0.61-0.13c-0.32-0.09-0.5-0.13-0.5-0.13L18.96,51.05z"/>
				</g>
				<g>
					<path class="st15" d="M25.21,57.69c-1.67,0-3.41-0.46-5.45-1.59l0.1-0.19c4.73,2.62,7.79,1.55,12.4-0.42
						c4.81-2.06,32.53-9.78,39.62-8.2c4.06,0.9,6.52-0.09,8.5-0.88c1.5-0.6,2.69-1.08,4.05-0.5l-0.09,0.2
						c-1.27-0.54-2.42-0.08-3.88,0.51c-2.01,0.81-4.5,1.81-8.63,0.89c-7.06-1.57-34.69,6.13-39.49,8.19
						C29.66,56.84,27.49,57.69,25.21,57.69z"/>
				</g>
				<g>
					<path class="st15" d="M78.32,50.8c-3.5,0-6.12-1.55-6.15-1.57l-0.62-0.38l0.7,0.18c4.37,1.11,6.46,0.02,9.62-1.63l0.6-0.31
						l0.1,0.19l-0.6,0.31c-2.99,1.56-5.03,2.63-8.91,1.84c1.47,0.66,4.8,1.79,8.49,0.67l0.06,0.21
						C80.47,50.66,79.36,50.8,78.32,50.8z"/>
				</g>
				<g>
					<path class="st15" d="M20.91,61.66l-0.21-0.06c0.73-2.51,4.02-2.94,8.59-3.54c1.79-0.23,3.83-0.5,5.98-0.93l1.75-0.35
						c8.14-1.63,21.77-4.35,29.88-5.36c4.39-0.54,6.63,0.07,8.61,0.62c1.94,0.53,3.47,0.95,6.41,0.03l0.06,0.21
						c-3,0.94-4.64,0.49-6.53-0.03c-1.96-0.54-4.18-1.15-8.52-0.61c-8.1,1.01-21.72,3.73-29.86,5.35l-1.75,0.35
						c-2.15,0.43-4.19,0.69-5.99,0.93C24.84,58.86,21.6,59.28,20.91,61.66z"/>
				</g>
				<g>
					<path class="st15" d="M20.87,62.89l-0.12-0.18c0.32-0.21,0.64-0.46,0.99-0.72c1.56-1.2,3.7-2.84,8.09-2.54
						c1.83,0.12,6.73-1.05,12.39-2.41c10.6-2.54,25.12-6.02,30.59-3.63c6.47,2.83,7.53,2.62,9.66,1.59l0.09,0.19
						c-2.19,1.06-3.29,1.28-9.84-1.59c-5.4-2.37-19.88,1.11-30.45,3.64c-5.91,1.42-10.58,2.53-12.45,2.41
						c-4.31-0.29-6.33,1.25-7.95,2.49C21.52,62.43,21.19,62.68,20.87,62.89z"/>
				</g>
				<g>
					<path class="st15" d="M60.17,64.58c-2.82,0-6.25-0.82-10.01-1.71c-3.77-0.9-8.04-1.92-12.45-2.3
						c-6.61-0.58-9.34,0.98-11.54,2.23c-1.6,0.91-2.98,1.69-5.37,1.47l0.02-0.21c2.32,0.22,3.68-0.55,5.24-1.44
						c2.22-1.26,4.99-2.84,11.66-2.25c4.43,0.39,8.71,1.41,12.48,2.31c5.88,1.4,10.95,2.61,14.05,0.78
						c8.58-5.05,14.04-2.1,15.84-1.13l-0.1,0.19c-1.77-0.95-7.15-3.86-15.63,1.13C63.21,64.31,61.79,64.58,60.17,64.58z"/>
				</g>
				<g>
					<path class="st15" d="M81.85,60.44c-0.63,0-4.1-0.11-7.44-2.45c-2.92-2.04-5.46-2.45-7.09-2.42c-1.01,0.01-1.8,0.19-2.29,0.34
						c-0.19,0.07-0.38,0.14-0.58,0.21l-0.09-0.2c0.01,0,0.19-0.09,0.52-0.19c4.5-1.58,6.56-0.74,9.15,0.31
						c1.9,0.77,4.05,1.65,7.67,1.76l-0.01,0.22c-3.66-0.11-5.83-0.99-7.75-1.78c-2.17-0.88-3.96-1.62-7.18-0.85
						c1.85-0.13,4.61,0.23,7.76,2.43c3.62,2.53,7.37,2.42,7.41,2.41l0.01,0.22C81.95,60.44,81.92,60.44,81.85,60.44z"/>
				</g>
				<g>
					<path class="st15" d="M21.6,66.67c-0.27,0-0.54-0.02-0.81-0.07l0.04-0.21c1.67,0.3,3.43-0.46,5.47-1.34
						c2.8-1.21,5.97-2.58,10.14-1.9c1.48,0.24,3.17,0.55,4.97,0.89c7.1,1.32,15.94,2.96,21.28,1.82l0.49-0.11
						c6.42-1.38,10.29-2.21,16.38,0.72l-0.09,0.19c-6.03-2.9-9.87-2.08-16.24-0.71l-0.49,0.11c-5.37,1.15-14.24-0.49-21.36-1.81
						c-1.79-0.33-3.49-0.65-4.97-0.89c-4.11-0.66-7.25,0.69-10.02,1.89C24.64,66,23.09,66.67,21.6,66.67z"/>
				</g>
				<g>
					<path class="st15" d="M19.81,68.85c0,0,0.17-0.02,0.5-0.05c0.16-0.03,0.35-0.08,0.57-0.13c0.22-0.06,0.48-0.16,0.77-0.25
						c0.57-0.22,1.25-0.5,2.03-0.84c0.78-0.34,1.67-0.73,2.65-1.11c0.98-0.39,2.06-0.75,3.23-1.07c1.17-0.31,2.43-0.53,3.74-0.67
						c1.31-0.09,2.69-0.08,4.06,0.07c0.69,0.07,1.38,0.16,2.07,0.3c0.34,0.07,0.69,0.16,1.03,0.28c0.17,0.06,0.34,0.13,0.5,0.22
						c0.16,0.1,0.33,0.2,0.42,0.43c0.02,0.06,0.03,0.12,0.01,0.18c-0.01,0.07-0.03,0.12-0.07,0.16c-0.06,0.1-0.14,0.16-0.22,0.22
						c-0.16,0.11-0.32,0.19-0.49,0.25c-0.34,0.13-0.68,0.22-1.03,0.29c-0.69,0.14-1.38,0.22-2.07,0.27
						c-1.38,0.11-2.74,0.11-4.05,0.08c-0.66-0.02-1.3-0.05-1.94-0.1c-0.32-0.03-0.63-0.07-0.94-0.12c-0.15-0.03-0.31-0.06-0.46-0.11
						c-0.08-0.03-0.15-0.05-0.23-0.1c-0.07-0.04-0.19-0.12-0.17-0.29c0.03-0.14,0.12-0.19,0.18-0.24c0.07-0.05,0.14-0.08,0.21-0.12
						c0.14-0.07,0.28-0.12,0.42-0.16c0.28-0.09,0.57-0.16,0.84-0.22c0.56-0.12,1.1-0.21,1.62-0.27c1.05-0.12,2.02-0.19,2.89-0.05
						c0.42,0.09,0.81,0.18,1.17,0.33c0.09,0.05,0.18,0.07,0.26,0.19c0.05,0.07,0.01,0.2-0.04,0.23c-0.05,0.04-0.09,0.06-0.14,0.08
						c-0.18,0.07-0.34,0.08-0.49,0.1c-0.62,0.06-1.1,0.03-1.43,0.01c-0.33-0.02-0.5-0.04-0.5-0.04l0-0.01c0,0,0.17,0,0.5-0.01
						c0.33-0.01,0.81-0.02,1.41-0.1c0.15-0.02,0.31-0.05,0.45-0.11c0.03-0.01,0.07-0.03,0.08-0.05c0.01-0.02,0,0.01,0,0
						c-0.02-0.03-0.1-0.08-0.18-0.11c-0.33-0.13-0.72-0.22-1.13-0.29c-0.82-0.13-1.79-0.06-2.82,0.06c-0.52,0.06-1.06,0.15-1.6,0.27
						c-0.27,0.06-0.55,0.13-0.82,0.22c-0.14,0.04-0.27,0.09-0.4,0.15c-0.12,0.05-0.27,0.16-0.27,0.19
						c-0.01-0.01,0.01,0.03,0.07,0.06c0.05,0.03,0.12,0.06,0.19,0.08c0.14,0.04,0.28,0.08,0.43,0.1c0.3,0.05,0.61,0.09,0.92,0.12
						c0.62,0.06,1.27,0.08,1.92,0.1c1.31,0.03,2.66,0.02,4.03-0.09c0.68-0.06,1.37-0.14,2.04-0.27c0.34-0.07,0.67-0.15,0.99-0.28
						c0.16-0.06,0.31-0.13,0.44-0.22c0.13-0.09,0.21-0.21,0.18-0.3c-0.03-0.1-0.17-0.21-0.31-0.29c-0.14-0.08-0.3-0.15-0.46-0.2
						c-0.32-0.11-0.66-0.2-0.99-0.27c-0.68-0.14-1.36-0.23-2.04-0.3c-1.37-0.15-2.71-0.15-4.01-0.06c-1.3,0.13-2.54,0.35-3.7,0.66
						c-1.15,0.32-2.23,0.66-3.2,1.05c-0.98,0.38-1.86,0.76-2.64,1.09c-0.78,0.34-1.47,0.62-2.05,0.84c-0.29,0.1-0.55,0.19-0.79,0.25
						c-0.24,0.05-0.44,0.11-0.61,0.14c-0.33,0.03-0.5,0.05-0.5,0.05L19.81,68.85z"/>
				</g>
				<g>
					<path class="st15" d="M61.07,62.58c-0.55,0-1.13-0.02-1.75-0.07c-2.84-0.22-4.98-1.13-6.87-1.92
						c-2.31-0.98-4.31-1.82-7.05-1.39l-0.03-0.21c2.8-0.44,4.93,0.46,7.17,1.41c1.97,0.83,4,1.69,6.81,1.91
						c5.12,0.4,7.84-0.96,9.83-1.95c0.37-0.18,0.72-0.36,1.04-0.5c1.92-0.83,6.44-0.94,11.02,2.15l-0.12,0.18
						c-4.51-3.04-8.94-2.94-10.82-2.13c-0.32,0.14-0.66,0.31-1.03,0.49C67.6,61.37,65.18,62.58,61.07,62.58z"/>
				</g>
			</g>
		</g>
		<polygon class="st16" points="22.11,65.33 75.95,65.33 82.1,32.72 83.27,32.77 78.32,66.51 22.54,68.95 		"/>
		
			<rect x="28.29" y="34.91" transform="matrix(0.9959 -0.0909 0.0909 0.9959 -4.1381 4.6602)" class="st17" width="41.65" height="25.74"/>
		
			<rect x="28.72" y="34.87" transform="matrix(0.9992 -0.0397 0.0397 0.9992 -1.8578 2.0062)" class="st18" width="41.65" height="25.74"/>
		<g>
			<g>
				<path class="st19" d="M48.24,49.98c0.09,2.19-1.62,4.03-3.8,4.11c-2.19,0.08-4.03-1.62-4.11-3.8c-0.08-2.19,1.62-4.03,3.8-4.11
					C46.32,46.1,48.16,47.8,48.24,49.98z"/>
				<path class="st18" d="M46.91,50.04c0.06,1.45-1.07,2.67-2.52,2.72c-1.45,0.06-2.67-1.07-2.72-2.52
					c-0.06-1.45,1.07-2.67,2.52-2.72C45.63,47.46,46.85,48.59,46.91,50.04z"/>
				<polygon class="st19" points="45.03,46.39 43.25,46.46 43.65,45.56 44.56,45.52 				"/>
				<polygon class="st19" points="43.06,46.52 41.56,47.47 41.45,46.49 42.22,46 				"/>
				<polygon class="st19" points="41.42,47.62 40.59,49.19 40,48.4 40.43,47.59 				"/>
				<polygon class="st19" points="40.54,49.39 40.61,51.17 39.71,50.77 39.67,49.86 				"/>
				<polygon class="st19" points="40.67,51.36 41.62,52.87 40.64,52.98 40.15,52.2 				"/>
				<polygon class="st19" points="41.77,53.01 43.34,53.83 42.55,54.42 41.74,53.99 				"/>
				<polygon class="st19" points="43.54,53.88 45.32,53.81 44.92,54.72 44.01,54.75 				"/>
				<polygon class="st19" points="45.51,53.75 47.02,52.8 47.12,53.78 46.35,54.27 				"/>
				<polygon class="st19" points="47.16,52.65 47.98,51.08 48.57,51.88 48.14,52.69 				"/>
				<polygon class="st19" points="48.03,50.88 47.96,49.11 48.86,49.5 48.9,50.42 				"/>
				<polygon class="st19" points="47.9,48.91 46.95,47.41 47.93,47.3 48.42,48.07 				"/>
				<polygon class="st19" points="46.8,47.27 45.23,46.44 46.02,45.86 46.83,46.28 				"/>
			</g>
			<g>
				<path class="st20" d="M59.36,40.19c0.07,1.82-1.34,3.34-3.16,3.41c-1.81,0.07-3.34-1.34-3.41-3.16
					c-0.07-1.82,1.34-3.34,3.16-3.41C57.76,36.96,59.29,38.37,59.36,40.19z"/>
				<path class="st18" d="M58.25,40.23c0.05,1.2-0.89,2.22-2.09,2.26c-1.2,0.05-2.22-0.89-2.26-2.09c-0.05-1.2,0.89-2.22,2.09-2.26
					C57.19,38.09,58.21,39.03,58.25,40.23z"/>
				<polygon class="st20" points="56.69,37.21 55.22,37.26 55.55,36.51 56.31,36.48 				"/>
				<polygon class="st20" points="55.06,37.32 53.81,38.1 53.72,37.29 54.36,36.88 				"/>
				<polygon class="st20" points="53.69,38.23 53,39.53 52.52,38.87 52.87,38.2 				"/>
				<polygon class="st20" points="52.97,39.7 53.02,41.17 52.27,40.84 52.24,40.08 				"/>
				<polygon class="st20" points="53.07,41.34 53.86,42.58 53.05,42.67 52.64,42.03 				"/>
				<polygon class="st20" points="53.99,42.7 55.29,43.39 54.63,43.87 53.96,43.52 				"/>
				<polygon class="st20" points="55.46,43.42 56.93,43.37 56.6,44.12 55.84,44.15 				"/>
				<polygon class="st20" points="57.09,43.32 58.34,42.53 58.43,43.34 57.79,43.75 				"/>
				<polygon class="st20" points="58.46,42.4 59.15,41.1 59.63,41.76 59.28,42.43 				"/>
				<polygon class="st20" points="59.18,40.93 59.13,39.46 59.88,39.79 59.91,40.55 				"/>
				<polygon class="st20" points="59.08,39.3 58.29,38.05 59.1,37.96 59.51,38.6 				"/>
				<polygon class="st20" points="58.16,37.93 56.86,37.25 57.52,36.76 58.19,37.11 				"/>
			</g>
			<g>
				<path class="st21" d="M61.87,49.46c0.1,2.51-1.86,4.62-4.36,4.72c-2.51,0.1-4.62-1.86-4.72-4.36c-0.1-2.51,1.86-4.62,4.36-4.71
					C59.67,44.99,61.78,46.95,61.87,49.46z"/>
				<path class="st18" d="M60.72,49.5c0.07,1.87-1.38,3.44-3.25,3.51c-1.87,0.07-3.44-1.38-3.51-3.25
					c-0.07-1.87,1.38-3.44,3.25-3.51C59.07,46.18,60.64,47.63,60.72,49.5z"/>
				<polygon class="st21" points="57.92,45.65 56.45,45.7 56.75,44.38 57.51,44.35 				"/>
				<polygon class="st21" points="58.23,53.56 56.75,53.62 57.16,54.92 57.92,54.89 				"/>
				<polygon class="st21" points="56.52,45.69 55.15,46.24 54.99,44.89 55.69,44.6 				"/>
				<polygon class="st21" points="59.52,53.02 58.15,53.58 58.98,54.66 59.68,54.37 				"/>
				<polygon class="st21" points="55.22,46.2 54.13,47.19 53.51,45.98 54.07,45.47 				"/>
				<polygon class="st21" points="60.54,52.07 59.45,53.06 60.6,53.79 61.16,53.28 				"/>
				<polygon class="st21" points="54.18,47.13 53.49,48.44 52.49,47.51 52.85,46.84 				"/>
				<polygon class="st21" points="61.18,50.82 60.5,52.13 61.83,52.43 62.18,51.75 				"/>
				<polygon class="st21" points="53.51,48.36 53.31,49.83 52.06,49.29 52.16,48.54 				"/>
				<polygon class="st21" points="61.36,49.44 61.16,50.9 62.51,50.72 62.61,49.97 				"/>
				<polygon class="st21" points="53.31,49.75 53.62,51.19 52.26,51.12 52.1,50.38 				"/>
				<polygon class="st21" points="61.05,48.07 61.36,49.51 62.57,48.89 62.41,48.14 				"/>
				<polygon class="st21" points="53.59,51.12 54.38,52.37 53.08,52.76 52.67,52.12 				"/>
				<polygon class="st21" points="60.29,46.9 61.08,48.14 62,47.14 61.6,46.5 				"/>
				<polygon class="st21" points="54.33,52.31 55.49,53.21 54.4,54.03 53.8,53.57 				"/>
				<polygon class="st21" points="59.18,46.05 60.34,46.95 60.87,45.69 60.27,45.23 				"/>
				<polygon class="st21" points="55.42,53.18 56.83,53.63 56.09,54.77 55.36,54.54 				"/>
				<polygon class="st21" points="57.84,45.63 59.25,46.09 59.31,44.72 58.58,44.49 				"/>
			</g>
			<g>
				<path class="st22" d="M40.17,44.53c0.08,1.96-1.45,3.61-3.41,3.69c-1.96,0.08-3.61-1.45-3.69-3.41
					c-0.08-1.96,1.45-3.61,3.41-3.69C38.44,41.04,40.09,42.57,40.17,44.53z"/>
				<path class="st18" d="M39.26,44.56c0.06,1.46-1.08,2.69-2.54,2.75c-1.46,0.06-2.69-1.08-2.75-2.54
					c-0.06-1.46,1.08-2.69,2.54-2.75C37.98,41.97,39.2,43.1,39.26,44.56z"/>
				<polygon class="st22" points="37.07,41.55 35.92,41.59 36.16,40.56 36.75,40.53 				"/>
				<polygon class="st22" points="37.31,47.74 36.16,47.78 36.48,48.8 37.07,48.77 				"/>
				<polygon class="st22" points="35.98,41.58 34.91,42.02 34.78,40.96 35.33,40.74 				"/>
				<polygon class="st22" points="38.32,47.31 37.26,47.75 37.9,48.59 38.45,48.37 				"/>
				<polygon class="st22" points="34.96,41.99 34.11,42.76 33.63,41.81 34.07,41.41 				"/>
				<polygon class="st22" points="39.12,46.57 38.27,47.35 39.17,47.92 39.61,47.52 				"/>
				<polygon class="st22" points="34.15,42.71 33.61,43.73 32.83,43.01 33.11,42.48 				"/>
				<polygon class="st22" points="39.63,45.6 39.09,46.62 40.13,46.85 40.4,46.32 				"/>
				<polygon class="st22" points="33.63,43.68 33.47,44.82 32.49,44.4 32.57,43.81 				"/>
				<polygon class="st22" points="39.76,44.51 39.61,45.66 40.66,45.52 40.74,44.93 				"/>
				<polygon class="st22" points="33.47,44.76 33.71,45.88 32.65,45.83 32.53,45.25 				"/>
				<polygon class="st22" points="39.52,43.45 39.77,44.57 40.71,44.08 40.58,43.5 				"/>
				<polygon class="st22" points="33.69,45.83 34.31,46.8 33.29,47.11 32.97,46.61 				"/>
				<polygon class="st22" points="38.93,42.53 39.54,43.5 40.26,42.72 39.95,42.22 				"/>
				<polygon class="st22" points="34.27,46.76 35.18,47.47 34.33,48.11 33.86,47.74 				"/>
				<polygon class="st22" points="38.06,41.87 38.97,42.57 39.38,41.59 38.91,41.23 				"/>
				<polygon class="st22" points="35.12,47.44 36.22,47.79 35.64,48.68 35.08,48.5 				"/>
				<polygon class="st22" points="37.01,41.54 38.11,41.89 38.16,40.83 37.59,40.65 				"/>
			</g>
			<g>
				<path class="st23" d="M52.78,44.92c0.05,1.37-1.01,2.52-2.38,2.58c-1.37,0.05-2.52-1.01-2.58-2.38
					c-0.05-1.37,1.01-2.52,2.38-2.58C51.57,42.48,52.73,43.55,52.78,44.92z"/>
				<path class="st18" d="M51.94,44.95c0.04,0.91-0.67,1.67-1.58,1.71c-0.91,0.04-1.67-0.67-1.71-1.58
					c-0.03-0.91,0.67-1.67,1.58-1.71C51.14,43.34,51.91,44.05,51.94,44.95z"/>
				<polygon class="st23" points="50.77,42.67 49.65,42.71 49.9,42.15 50.48,42.13 				"/>
				<polygon class="st23" points="49.53,42.75 48.59,43.35 48.52,42.73 49.01,42.43 				"/>
				<polygon class="st23" points="48.5,43.44 47.98,44.43 47.62,43.93 47.88,43.42 				"/>
				<polygon class="st23" points="47.96,44.55 48,45.66 47.43,45.41 47.41,44.84 				"/>
				<polygon class="st23" points="48.04,45.79 48.63,46.73 48.02,46.8 47.71,46.31 				"/>
				<polygon class="st23" points="48.72,46.82 49.71,47.33 49.21,47.7 48.7,47.43 				"/>
				<polygon class="st23" points="49.84,47.36 50.95,47.32 50.7,47.89 50.13,47.91 				"/>
				<polygon class="st23" points="51.07,47.28 52.01,46.69 52.08,47.3 51.59,47.61 				"/>
				<polygon class="st23" points="52.1,46.59 52.62,45.61 52.98,46.11 52.72,46.61 				"/>
				<polygon class="st23" points="52.65,45.48 52.6,44.37 53.17,44.62 53.19,45.19 				"/>
				<polygon class="st23" points="52.57,44.25 51.97,43.31 52.59,43.24 52.89,43.72 				"/>
				<polygon class="st23" points="51.88,43.22 50.89,42.7 51.39,42.33 51.9,42.6 				"/>
			</g>
		</g>
		<polygon class="st24" points="20.45,49.93 18.77,30.3 79.55,32.6 18.24,29.76 		"/>
	</g>
	<g>
		<path class="st25" d="M33.22,52.78c0,0-1.19-0.76-2.41-0.23c-1.22,0.53-0.87,1.33-0.87,1.33l3.3-0.01l0.24-0.63L33.22,52.78z"/>
		<path class="st26" d="M29.06,53.43l5.46-1.54c0.06-0.02,0.13,0.02,0.14,0.08c0.02,0.06-0.02,0.12-0.07,0.14l-5.38,1.82
			c-0.14,0.05-0.29-0.03-0.33-0.16c-0.05-0.14,0.03-0.29,0.16-0.33C29.05,53.43,29.05,53.43,29.06,53.43z"/>
		<path class="st27" d="M28.22,53.55c0.36-0.11,1.18-0.64,1.58-0.88c0.4-0.25,0.48-0.5,1.1-0.64c0.62-0.14,1.11-0.18,1.31-0.15
			c0.2,0.03,0.44,0.03,0.7,0.08c0.26,0.04,0.44,0.25-0.04,0.44c-0.34,0.13-0.7,0.11-0.94,0.1c-0.24-0.01-0.79,0.31-1.07,0.52
			c-0.28,0.21-0.43,0.37-0.12,0.38c0.31,0.01,1.08-0.04,1.43-0.01c0.34,0.03,0.92,0.17,0.92,0.17s0.05-0.39,0.14-0.45
			c0,0-0.22-0.27-0.28-0.48c-0.07-0.21,0.17-0.53,0.37-0.25c0.21,0.28,0.52,0.71,0.53,0.84c0.01,0.12-0.24,0.93-0.25,1
			c-0.02,0.07-0.59,0.3-0.78,0.46c-0.19,0.16-0.66,0.47-0.8,0.49c-0.15,0.02-0.83-0.06-1.26-0.06c-0.43,0-1.25,0.11-1.68,0.32
			L28.22,53.55z"/>
		<path class="st22" d="M15.47,54.87c1.12,0.04,2.44-0.56,2.55-2.08c0.1-1.52-0.82-2.51-0.95-3.7c-0.14-1.19,0-3.47-1.27-4.6
			c-0.75-0.67-1.43-0.53-2.55-0.4L15.47,54.87z"/>
		<path class="st26" d="M31.85,52.64l-2.79,0.79c0,0-0.01,0-0.01,0c-0.14,0.05-0.21,0.2-0.16,0.33c0.05,0.14,0.2,0.21,0.33,0.16
			l2.93-0.99C32.05,52.84,31.95,52.74,31.85,52.64z"/>
		<path class="st22" d="M27.91,56.08c0.55-0.24,0.96-0.45,1.21-0.57c0,0-0.31-2.04-0.93-2.12c0,0-1.31,0.34-1.98,0.42l0,0
			c-1.39,0.14-3.79,0.52-5.04,1.22l-4.85-0.21L15.4,50.6l-8.37,1.27c0.09,0.93,0.94,3.41,1.95,4.75c1.01,1.35,3.21,2.67,6.69,2.37
			c3.48-0.3,5.86-0.68,6.23-0.74c0.38-0.06,3.66-1.25,4.98-1.75c0.36-0.13,0.66-0.26,0.93-0.38l0,0L27.91,56.08z"/>
		<path class="st27" d="M27.09,47.82c-0.17-0.25-0.75-0.62-1-0.81c-0.24-0.19-0.77-1.02-0.77-1.02s0.29,0.37,0.41,0.5
			c0.13,0.14,0.71,0.6,0.81,0.63c0.1,0.02,0.34-0.07,0.18-0.41c-0.08-0.17-0.38-0.38-0.61-0.64c-0.23-0.26-0.47-0.53-0.67-0.77
			c-0.4-0.49-0.76-0.53-1.61-1.08c-0.03-0.02-0.06-0.04-0.08-0.06l-1.39,1.42c0.07,0.06,0.14,0.12,0.2,0.17
			c0.57,0.52,0.7,1.44,0.8,1.65c0.1,0.22,0.97,0.83,1.18,1.05c0.21,0.22,0.62,0.07,0.62,0.07c0.48,0.23,0.79,0.05,0.79,0.05
			c0.07,0.04,0.39,0.21,0.59,0.31c0.2,0.1,0.45,0.23,0.53,0.05c0.08-0.18-0.05-0.53-0.05-0.53C27.11,48.31,27.25,48.07,27.09,47.82z
			"/>
		<path class="st22" d="M22.57,43.05L22.57,43.05c-0.34-0.37-0.77-0.84-1.48-1.53c-1.74-1.7-2.99-1.92-4.17-2.13
			c-1.19-0.21-6.69,2.64-8.32,4.05c-1.63,1.42-2.19,4.24-1.56,8.43l8.37-1.27l-1.3-6.38l3.35-1.79c0.53,0.52,2.08,1.28,2.61,1.59
			c0.22,0.13,0.59,0.36,0.98,0.62c0.11,0.08,1.07,0.94,1.23,1.1c0,0,0.99-0.37,1.63-1.64C23.91,44.09,22.85,43.36,22.57,43.05z"/>
		<path class="st25" d="M16.06,49c0,0-2.46-4.36-6.52-2.24l1.37,7.11c0,0,2.48,0.25,3.98-0.8C16.4,52.03,16.06,49,16.06,49z"/>
		<path class="st16" d="M15.4,50.6c0,1.91-1.46,3.45-3.25,3.45s-3.25-1.54-3.25-3.45c0-1.91,1.46-3.45,3.25-3.45
			S15.4,48.69,15.4,50.6z"/>
		<g>
			<g>
				<g>
					<path class="st27" d="M14.72,49.87c-0.04-0.22-0.35-0.25-0.5-0.38c-0.15-0.14-0.32-0.06-0.32-0.06s-0.07-0.5-0.25-0.82
						c-0.19-0.32-0.64-0.7-1.14-0.96c-0.5-0.27-0.81-0.36-1.47-0.42c-0.65-0.05-0.63-0.12-0.77-0.29c-0.13-0.17-0.56-0.14-0.74-0.17
						c-0.17-0.03-1.1-0.08-1.14,0.53c-0.04,0.61,1.62,6.69,1.7,6.79s0.33,0.21,0.62,0.05c0.29-0.16,1.09-0.38,0.99-0.67
						c0,0,0.56-0.1,1.21-0.57c0.65-0.47,1.33-1.48,1.23-2.21c0,0,0.2-0.01,0.28-0.2C14.52,50.29,14.77,50.19,14.72,49.87z"/>
				</g>
				<g>
					<path class="st28" d="M12.69,47.44c0.74,0.02,0.97,0.36,1.15,1.04c0.15,0.56,0.17,0.83,0.17,0.92c0.06,0.09,0.23,0.4,0.29,0.75
						c0.05,0.29,0.01,0.46-0.02,0.55c0.1,0.23,0.13,0.52,0.15,0.81c0.01,0.12,0.02,0.23,0.03,0.34c0.04,0.28,0.02,0.68-0.14,0.85
						c-0.06,0.06-0.13,0.09-0.21,0.09l0.01-0.21c0.01,0,0.02,0,0.04-0.02c0.07-0.08,0.12-0.34,0.08-0.68
						c-0.02-0.11-0.02-0.23-0.03-0.35c-0.02-0.29-0.05-0.59-0.15-0.78l-0.03-0.06l0.04-0.05l0,0c0,0,0.07-0.13,0.02-0.45
						c-0.06-0.36-0.27-0.69-0.28-0.7l-0.02-0.03l0-0.04c0,0,0.01-0.24-0.17-0.89c-0.18-0.68-0.38-0.86-0.95-0.88L12.69,47.44z"/>
				</g>
				<g>
					<path class="st29" d="M11.97,48.16c0.57,0.17,1.16,0.65,1.25,1.87c0.1,1.22,1.29,2.28,1.91,1.91c0,0-0.61,0.52-1.34-0.13
						c0,0,0.32,1.17,1.38,0.88c0,0-0.17,0.27-0.54,0.3c-0.37,0.03-0.36,0.34-0.86,0.46c-0.5,0.12-0.89-0.14-0.89-0.14
						s0.43,0.54,1.05,0.36c0,0-0.2,0.32-0.85,0.41c-0.65,0.09-1.3,0.4-2.12,0.62c-0.81,0.22-2.07,0.46-2.99,0.03
						c-0.91-0.43-1.78-0.96-2.1-2.37C5.55,50.95,6,49.87,6,49.87s-0.44-0.39-0.13-1.08c0.31-0.69,2.02-1.91,4.08-2.23
						c2.06-0.33,2.88,0.66,3.29,1.35C13.24,47.9,12.52,47.26,11.97,48.16z"/>
				</g>
			</g>
			<g>
				<path class="st28" d="M7.03,54.19c-1.25-0.96-0.88-3.97,0.23-4.09c1.11-0.12,1.05,0.58,1.05,0.58s0.74-1.66,2.92-1.54
					c2.18,0.13,1.7,1.86,2.56,2.66c0.73,0.64,1.34,0.13,1.34,0.13c-0.61,0.37-1.81-0.69-1.91-1.91c-0.1-1.22-0.68-1.7-1.25-1.87
					C8.01,48.18,6,49.87,6,49.87s-0.45,1.08-0.13,2.49C6.08,53.27,6.51,53.81,7.03,54.19z"/>
			</g>
			<g>
				<path class="st28" d="M5.87,48.78c-0.13,0.3-0.13,0.54-0.08,0.72c-0.06-0.85,1.4-1.93,2.23-1.82c0.83,0.11,0.85-0.37,2.25-0.75
					c1.4-0.38,2.65,0.52,2.96,0.98c-0.41-0.69-1.23-1.68-3.29-1.35C7.9,46.88,6.18,48.1,5.87,48.78z"/>
			</g>
		</g>
		<g>
			<path class="st25" d="M26.76,48.25c-0.13-0.07-0.27-0.16-0.43-0.25c-0.15-0.09-0.33-0.18-0.49-0.29
				c-0.29-0.25-0.54-0.55-0.73-0.76c-0.19-0.22-0.31-0.37-0.31-0.37s0.12,0.15,0.3,0.38c0.19,0.22,0.43,0.52,0.72,0.78
				c0.16,0.11,0.33,0.2,0.48,0.3c0.15,0.09,0.3,0.18,0.42,0.26c0.14,0.08,0.24,0.15,0.32,0.19c-0.01-0.05-0.03-0.1-0.03-0.1
				C26.95,48.36,26.87,48.31,26.76,48.25z"/>
			<path class="st25" d="M25.84,48.47c-0.18-0.15-0.45-0.31-0.66-0.52c-0.43-0.44-0.79-0.95-0.79-0.95s0.34,0.52,0.76,0.97
				c0.22,0.23,0.48,0.39,0.65,0.54c0.03,0.03,0.06,0.05,0.09,0.08c0.04-0.01,0.06-0.03,0.06-0.03c0,0,0.01,0.01,0.02,0.01
				C25.93,48.55,25.89,48.51,25.84,48.47z"/>
			<path class="st25" d="M24.47,47.92c-0.23-0.2-0.49-0.39-0.59-0.6c-0.11-0.21-0.14-0.36-0.14-0.36s0.03,0.15,0.13,0.36
				c0.1,0.22,0.35,0.41,0.58,0.62c0.23,0.2,0.47,0.41,0.64,0.56c0.01,0.01,0.02,0.02,0.03,0.03c0.01,0,0.04-0.01,0.04-0.01
				c0.03,0.01,0.05,0.01,0.08,0.02c-0.03-0.03-0.06-0.06-0.1-0.09C24.95,48.31,24.71,48.12,24.47,47.92z"/>
		</g>
		<path class="st30" d="M28.18,53.39c0,0-1.31,0.34-1.98,0.42l0,0c-1.39,0.14-3.79,0.52-5.04,1.22l-4.85-0.21l-0.01-0.04
			c0.85-0.22,1.62-0.84,1.7-1.98c0.05-0.8-0.17-1.45-0.42-2.06c0.23,0.64,0.36,2.65-0.68,3.21c-1.04,0.56-2.19,1.26-2.19,1.26
			s6.72,0.74,6.86,0.63c0.14-0.11,4.1-1.5,7.03-2.03C28.5,53.58,28.35,53.41,28.18,53.39z"/>
		<path class="st30" d="M22.87,45.38c-0.8-0.46-1.61-1.27-2.58-1.92c-0.96-0.65-3.04-1.98-3.04-1.98s-3.38,2.33-4.59,2.85
			c0,0,3.53-0.18,4.3,3.46c-0.09-1.15-0.28-2.51-1.17-3.3c-0.41-0.37-0.81-0.49-1.26-0.5l2.93-1.56c0.53,0.52,2.08,1.28,2.61,1.59
			c0.22,0.13,0.59,0.36,0.98,0.62c0.11,0.08,1.07,0.94,1.23,1.1C22.28,45.74,22.53,45.64,22.87,45.38z"/>
	</g>
	<g>
		<path class="st31" d="M38.45,60.32l6.07,0.01c0.05,0,0.1-0.04,0.1-0.09l0.25-4.84c0-0.06-0.04-0.11-0.1-0.1l-6.78,0.06
			c-0.06,0-0.1,0.05-0.1,0.11l0.46,4.77C38.36,60.28,38.4,60.32,38.45,60.32z"/>
		<path class="st32" d="M37.99,55.35c-0.06,0-0.1,0.05-0.1,0.11l0.45,4.63l6.07,0.01c0.05,0,0.1-0.04,0.1-0.09l0.25-4.72
			L37.99,55.35z"/>
		<polygon class="st3" points="38.85,59.79 38.46,55.88 44.32,55.82 44.11,59.8 		"/>
		<polygon class="st2" points="38.84,59.71 38.46,55.87 44.22,55.82 44.01,59.72 		"/>
		<polygon class="st3" points="44.32,55.82 38.46,55.88 38.5,56.28 44.29,56.45 		"/>
		<path class="st33" d="M42.57,55.31l-4.27,4.35l0.06,0.57c0,0.05,0.05,0.09,0.1,0.09l0.35,0l4.04-5.02L42.57,55.31z"/>
		<polygon class="st33" points="43.72,55.3 40.11,60.32 41.49,60.33 44.65,55.29 		"/>
		<path class="st27" d="M48.64,62.41c-0.37-0.5-0.32-0.95-0.83-1.45c-0.51-0.5-0.3-0.39-0.83-1.41c-0.53-1.02-1.1-1.52-1.37-1.77
			c-0.17-0.16-0.57-0.32-0.85-0.42l-0.12,2.26c0.09,0.41,0.15,0.97,0.06,1.06c-0.14,0.13-0.42-0.16-1.18-0.39
			c-0.76-0.23-1.35,0-1.33,0.31c0.03,0.31,0.96,0.27,1.71,0.99c0.74,0.71,2.02,0.86,2.43,1.04c0.35,0.16,0.77,0.84,0.9,1.15
			c0.55-0.32,1.13-0.61,1.71-0.87C48.81,62.68,48.7,62.5,48.64,62.41z"/>
		<path class="st9" d="M50.81,66.36c-0.16-0.31-1.22-2.34-1.83-3.38c-0.59,0.26-1.16,0.55-1.72,0.87c0,0.02,0.01,0.04,0.01,0.05
			c0.03,0.21,1,4.05,0.91,4.57c-0.08,0.52-1.92,4.57-1.92,4.57s-1.4-0.83-2.61-0.93c-0.79-0.07-1.4-0.12-2.43-0.15
			c-0.54-0.02-1.2-0.03-2.06-0.03c-2.5,0-3.73,1.1-3.73,1.1l-1.36-5.01c0.52-0.89,1.19-3.19,1.85-4.45
			c-0.14-0.08-0.28-0.17-0.4-0.26c-0.39-0.3-0.76-0.63-1.17-0.91c-0.81,1.12-2.44,3.32-2.98,4.12c-0.69,1.02,0.02,6.52-0.01,8.5
			c-0.02,1.98,0.53,3.38,1.95,4.6c1.42,1.22,3.44,2.01,5.2,2.3c0,0,5.79,0.17,6.52-0.05c0.74-0.22,3.83-1.66,4.29-3.13
			c0.46-1.48,0.91-3.86,1.07-4.72c0.16-0.86,0.84-3.89,0.95-5.24S51.01,66.75,50.81,66.36z"/>
		<g>
			<path class="st27" d="M38.11,77.94c0.52-0.89,1.19-1.38,1.81-1.53c0.62-0.15,0.91-0.15,0.91-0.15s0.33-0.55,0.53-0.58
				c0.19-0.04,0.47,0.43,0.48,0.64c0,0,1.9,0.34,2.1,1.86l0.17,2.31l-5.78,0.42L38.11,77.94z"/>
			<path class="st27" d="M37.59,79.05c-0.12-0.02-0.37,0.26-0.5,0.8c-0.14,0.53-0.08,1.01,0.26,1.12
				C37.68,81.07,37.59,79.05,37.59,79.05z"/>
			<path class="st27" d="M44.75,79.71c0,0,0.35,0.06,0.41,0.89c0.06,0.83-0.39,1.01-0.61,0.9C44.32,81.38,44.75,79.71,44.75,79.71z"
				/>
			<path class="st34" d="M38.36,77.56c0,0-0.15,0.72,0.09,1.21c0,0,0.6-1.49,2.54-1.28c0,0-1.11,0.34-1.22,0.68
				c0,0,2.46-1.01,3.61,0.68c0,0-0.3-0.2-0.71-0.21c0,0,0.69,0.43,0.94,0.87c0,0,0.28-0.72,0.15-1.94c0,0,0.9,0.67,1.01,2.15
				c0.11,1.48-0.28,3.43-1.11,4.32c-0.83,0.89-2.96,0.83-3.78,0.62c-0.82-0.2-2.59-1.3-2.52-3.47
				C37.4,79.02,37.81,78.16,38.36,77.56z"/>
			<path class="st35" d="M41.01,84.78c-0.46-0.01-0.88-0.06-1.15-0.13c-0.82-0.2-2.59-1.3-2.52-3.47c0.06-2.17,0.48-3.03,1.02-3.63
				c0,0-0.15,0.72,0.09,1.21c0,0,0.6-1.49,2.54-1.28c0,0-1.11,0.34-1.22,0.68c0,0,0.22-0.09,0.56-0.17
				c-0.56,0.17-2.82,2.35-1.43,4.74c0,0-0.28-0.88,0.42-1.73C39.31,81.01,38.97,84.01,41.01,84.78z"/>
			<path class="st35" d="M44.2,79.66c-0.07,2.32-0.95,3.41-0.95,3.41c1-3.05-0.58-4.44-0.58-4.44s0.69,0.43,0.94,0.87
				c0,0,0.28-0.72,0.15-1.94c0,0,0.9,0.67,1.01,2.15c0.05,0.65,0,1.39-0.14,2.09C44.63,80.28,44.2,79.66,44.2,79.66z"/>
		</g>
		<path class="st18" d="M46.86,63.57l-0.44-0.79c0,0,0.62-1.04,1.96-1.14l0.31,0.66L46.86,63.57z"/>
		<path class="st9" d="M48.19,68.47l-1.5-5.1c0,0,0.93-1.02,2.09-1.17c0,0,2.25,3.99,2.42,5.01c0.17,1.02-0.77,1.51-0.77,1.51
			L48.19,68.47z"/>
		<path class="st27" d="M40.2,60.19c-0.66-0.12-1.05,0.35-1.39,0.24c-0.34-0.11-0.53-0.74-0.53-0.74l-0.04-0.66l-0.12-1.27
			c-0.64,0.29-1.88,2.67-2.4,2.89c-0.53,0.23-0.61,0.68-0.9,1.12c-0.06,0.09-0.21,0.29-0.41,0.57c0.46,0.32,0.87,0.69,1.32,1.02
			c0.07,0.05,0.15,0.1,0.23,0.15c0.16-0.31,0.33-0.55,0.49-0.69c0.82-0.7,1.48-0.82,2.29-1.15c0.81-0.32,1.26-0.52,1.51-0.72
			c0.25-0.2,0.97-0.01,1.01-0.28C41.31,60.4,40.86,60.31,40.2,60.19z"/>
		<path class="st18" d="M34.69,61.67l0.39-0.6c0,0,1.09,0.2,1.94,1.33l-0.65,0.64L34.69,61.67z"/>
		<path class="st9" d="M31.38,66.52c0,0,2.49-3.89,3.14-4.88c0,0,1.14,0.07,2.1,1.25c0,0-1.13,1.59-1.42,2.38l-1.66,0.87
			L31.38,66.52z"/>
		<path class="st13" d="M47.11,62.99c-0.26,0.21-0.42,0.38-0.42,0.38l1.5,5.1c-0.08,0.52-1.92,4.57-1.92,4.57s-1.4-0.83-2.61-0.93
			c-0.79-0.07-1.4-0.12-2.43-0.15c-0.54-0.02-1.2-0.03-2.06-0.03c-2.5,0-3.73,1.1-3.73,1.1l-1.36-5.01c0.33-0.57,0.72-1.7,1.13-2.77
			c0.31-0.79,1.41-2.35,1.41-2.35c-0.16-0.2-0.32-0.35-0.49-0.49c-0.61,0.92-2.89,5.04-2.84,5.53c0.05,0.49,1.33,6.68,1.39,6.95
			c0,0,2.49-2.72,6.41-2.26c3.92,0.46,5.59,2.38,5.59,2.38s2.43-5.84,2.43-6.3C49.12,68.31,47.59,64.24,47.11,62.99z"/>
	</g>
	<g>
		<g>
			<polygon class="st16" points="71.28,63.28 64.58,67.54 59.01,58.95 65.71,54.69 			"/>
			<polygon class="st36" points="71.35,63.15 64.65,67.42 59.08,58.83 65.78,54.57 			"/>
			
				<rect x="58.66" y="56.64" transform="matrix(0.8437 -0.5368 0.5368 0.8437 -20.813 42.5335)" class="st37" width="7.94" height="0.73"/>
		</g>
		<g class="st38">
			<polygon class="st37" points="60.82,59.72 60.72,59.56 65.75,56.4 65.85,56.56 			"/>
		</g>
		<g class="st38">
			<polygon class="st37" points="61.3,60.46 61.2,60.3 66.23,57.13 66.33,57.3 			"/>
		</g>
		<g class="st38">
			<polygon class="st37" points="61.78,61.19 61.68,61.03 66.71,57.87 66.81,58.03 			"/>
		</g>
		<g class="st38">
			
				<rect x="62.43" y="61.27" transform="matrix(0.8484 -0.5293 0.5293 0.8484 -22.5665 43.9188)" class="st37" width="5.94" height="0.19"/>
		</g>
		<g class="st38">
			
				<rect x="62.97" y="62.11" transform="matrix(0.8464 -0.5326 0.5326 0.8464 -23.0003 44.6743)" class="st37" width="5.94" height="0.19"/>
		</g>
		<g class="st38">
			<polygon class="st37" points="64.01,64.71 63.91,64.55 68.94,61.39 69.04,61.55 			"/>
		</g>
		<g class="st38">
			<polygon class="st37" points="64.55,65.56 64.45,65.4 69.48,62.23 69.58,62.39 			"/>
		</g>
		<rect x="63.9" y="59.07" class="st25" width="1.5" height="1.03"/>
		<path class="st39" d="M61.7,67.1c-0.04-0.12-0.25-0.36-0.46-0.54c-0.21-0.19-0.91-0.6-1.06-0.65c-0.15-0.05-0.49-0.21-0.54-0.13
			c-0.05,0.08,0.91,1.28,0.91,1.28L61.7,67.1z"/>
		<path class="st27" d="M59.64,66.5c0.15-0.29,0.38-1.15,0.61-1.55c0.23-0.4,0.29-0.65,0.69-1.59c0.39-0.94,0.39-1.16,0.51-1.19
			c0.11-0.03,0.25,0.18,0.22,0.36c-0.03,0.18-0.44,1.26-0.37,1.3c0.07,0.04,0.74-1.15,1-1.53c0.26-0.37,0.31-0.52,0.45-0.48
			c0.14,0.04,0.2,0.21,0.03,0.52c-0.17,0.31-0.87,1.38-0.9,1.43s0.73-0.84,1-1.19c0.27-0.35,0.45-0.67,0.52-0.65
			c0.07,0.02,0.27,0.11,0.13,0.39c-0.14,0.27-0.79,1.27-0.92,1.44c-0.13,0.17-0.22,0.22-0.19,0.27c0.03,0.05,0.52-0.5,0.71-0.7
			c0.18-0.2,0.63-0.79,0.71-0.76c0.08,0.03,0.31,0.17-0.05,0.61c-0.36,0.44-0.94,1.21-1.07,1.33c-0.13,0.12-0.27,0.73-0.25,0.84
			c0.02,0.12,0.51,0.1,1.02-0.03c0.51-0.14,0.76,0.08,0.82,0.19c0.07,0.1-0.42,0.22-0.86,0.37c-0.44,0.15-0.76,0.29-1.17,0.44
			c-0.41,0.15-0.79,0.52-1.07,0.73c-0.27,0.21-0.52,0.45-0.52,0.45L59.64,66.5z"/>
		<path class="st40" d="M66.75,74.23c-3.1,0.32-3.34,1.79-3.7,1.73c-0.54-0.09-2.99-3.25-2.99-3.25s0.55-1.38,0.74-2.39
			C61,69.3,61.7,67.1,61.7,67.1c-0.93-0.14-2.06-1.33-2.06-1.33c-0.58,1.37-1.91,4.81-2.34,6.14c-0.39,1.2-0.18,1.32,0.95,3.89
			c0.95,2.16,1.12,2.42,2.41,4.48c1.23,1.97,6.05,1.63,8.02,1.79l1.47-6.71C69.87,75.3,67.05,74.2,66.75,74.23z"/>
		<path class="st27" d="M63.5,59.84c-0.16,0.03-0.37,0-0.33-0.14c0.05-0.14,0.35-0.67,0.57-0.97c0.22-0.31,0.39-0.43,0.91-0.57
			l-0.19,1.24c0,0-0.33-0.01-0.58,0.08C63.61,59.58,63.5,59.84,63.5,59.84z"/>
		<polygon class="st8" points="63.57,60.51 63.67,60.8 63.83,60.53 63.97,59.55 63.69,59.3 		"/>
		<path class="st8" d="M63.95,59.64c0,0,0.22-1.31,0.28-1.61c0.05-0.31,0.1-0.6-0.06-0.63c-0.15-0.02-0.29-0.13-0.33,0.32
			c-0.04,0.45-0.17,1.78-0.17,1.78S63.79,59.65,63.95,59.64z"/>
		<path class="st27" d="M68.01,61.9c-0.36-0.23-0.67-0.59-1.28-0.66c-0.61-0.07-1.35-0.09-1.8-0.38c-0.46-0.29-0.99-0.62-1.15-0.76
			c-0.16-0.14-0.66-0.62-0.5-0.73c0.16-0.11,0.52,0,0.79,0.25c0.27,0.25,0.88,0.41,1.08,0.33c0.2-0.07-0.52-0.55-0.67-0.54
			c-0.15,0-0.26,0.01-0.26,0.01s0.34-1.11,0.37-1.2c0.03-0.09,0.61-0.2,0.9-0.23c0.28-0.03,0.57-0.11,0.9,0.2
			c0.33,0.31,1.13,1.32,1.34,1.49c0.21,0.17,1.36,0.92,1.36,0.92L68.01,61.9z"/>
		<path class="st40" d="M67.4,62c0,0,0.41-1.54,1.2-1.85c0,0,1.68,0.87,2.63,1.5c0.95,0.63,4.8,3.23,4.87,3.66
			c0.07,0.43,0.3,3.39-0.24,6.19c-0.54,2.8-1.41,7.89-3.28,9.3c-1.72,1.29-4.41,1.15-4.41,1.15l0.44-6.11c0,0-4.97-0.35-4.7-0.63
			c1.55-1.62,5.1-1.78,6.65-1.77c0.45,0,0.84-0.29,0.97-0.72c0.49-1.64,1.61-5.43,1.59-5.65c-0.02-0.28-2.28-2.42-2.83-2.99
			C69.75,63.52,67.4,62,67.4,62z"/>
		<path class="st23" d="M74.14,66.43c-0.48-0.9-5.11-4.37-6.39-5.32C67.52,61.56,67.4,62,67.4,62s2.35,1.51,2.9,2.08
			c0.55,0.57,2.81,2.71,2.83,2.99c0.02,0.22-1.11,4.01-1.59,5.65c-0.13,0.43-0.52,0.72-0.97,0.72c-1.55-0.01-5.1,0.14-6.65,1.77v0
			c-0.52,0.41-0.67,0.78-0.86,0.75c-0.54-0.09-2.99-3.25-2.99-3.25s0.55-1.38,0.74-2.39C61,69.3,61.7,67.1,61.7,67.1
			c-0.18-0.03-0.37-0.11-0.56-0.2c-0.61,1.97-1.94,5.7-1.94,5.7s3.11,4.36,3.43,4.7c0.31,0.34,2.04-1.89,3.52-2.02
			c1.48-0.13,5.22,0.16,5.53-0.41C71.99,74.3,74.7,67.47,74.14,66.43z"/>
		<g>
			<path class="st27" d="M66.61,72.96c-0.22,0.04-0.24,0.36-0.37,0.52c-0.13,0.16-0.05,0.33-0.05,0.33s-0.51,0.09-0.83,0.29
				c-0.32,0.2-0.68,0.68-0.94,1.19c-0.25,0.52-0.34,0.84-0.37,1.51c-0.03,0.66-0.1,0.65-0.27,0.79c-0.17,0.14-0.12,0.58-0.14,0.76
				c-0.02,0.18-0.04,1.13,0.59,1.14c0.62,0.01,6.75-1.9,6.85-1.99c0.1-0.09,0.21-0.34,0.03-0.64c-0.18-0.29-0.43-1.09-0.72-0.98
				c0,0-0.12-0.56-0.63-1.21c-0.5-0.65-1.56-1.29-2.3-1.16c0,0-0.01-0.2-0.21-0.28C67.05,73.14,66.93,72.89,66.61,72.96z"/>
			<path class="st41" d="M66.72,81.76c-1.08,0.01-2.02-1-2.49-2.28c-0.47-1.28-0.34-2.63-0.26-3.01c0.08-0.38,0.71-0.6,1-0.89
				c0.29-0.28,1.02-1.21,2.28-1.27c1.26-0.06,2.11,0.72,2.49,0.82c0.39,0.1,0.55,0.29,0.82,0.92c0.27,0.63,0.63,1.6,0.58,2.48
				c-0.05,0.89-0.28,1.81-0.85,2.18c0,0,0.7,0.25,0.57,1.12c-0.13,0.87-1.04,1.39-2.38,1.49C67.4,83.42,66.35,82.75,66.72,81.76z"/>
			<path class="st41" d="M65,75.7c0,0,0.04-0.08,0.13-0.22c0.09-0.14,0.22-0.33,0.41-0.53c0.37-0.41,1.04-0.84,1.78-0.88
				c0.36-0.03,0.74,0.02,1.06,0.12c0.33,0.1,0.61,0.25,0.86,0.34c0.5,0.21,0.88,0.14,0.88,0.14s-0.09,0.02-0.25,0.02
				c-0.16,0-0.39-0.03-0.64-0.13c-0.26-0.09-0.54-0.22-0.87-0.31c-0.33-0.09-0.68-0.12-1.03-0.08c-0.72,0.07-1.33,0.5-1.66,0.9
				c-0.35,0.4-0.48,0.73-0.48,0.73L65,75.7z"/>
			<path class="st41" d="M64.87,76.02c0,0,0.07-0.07,0.15-0.2c0.09-0.13,0.19-0.33,0.35-0.57c0.15-0.24,0.4-0.5,0.74-0.65
				c0.33-0.15,0.72-0.2,1.09-0.21c0.19,0.01,0.38-0.01,0.56,0.04c0.18,0.04,0.35,0.1,0.52,0.15c0.33,0.1,0.64,0.19,0.92,0.24
				c0.55,0.12,0.92,0.01,0.92,0.01s-0.37,0.12-0.92,0.02c-0.28-0.04-0.59-0.12-0.93-0.21c-0.17-0.04-0.34-0.1-0.52-0.13
				c-0.17-0.04-0.36-0.02-0.54-0.02c-0.36,0.02-0.73,0.08-1.03,0.24c-0.3,0.15-0.51,0.39-0.65,0.62c-0.14,0.23-0.24,0.44-0.33,0.59
				c-0.09,0.15-0.15,0.22-0.15,0.22L64.87,76.02z"/>
			<path class="st42" d="M67.62,81.4c0.81-0.93,2.67-0.68,2.67-0.68c-1.19-0.71-2.28,0.56-3.89-0.28c-1.62-0.84-1.78-3.99-1.04-5.21
				c0,0-0.02-0.01-0.02-0.01c-0.16,0.15-0.28,0.29-0.37,0.37c-0.29,0.28-0.93,0.51-1,0.89c-0.08,0.38-0.21,1.74,0.26,3.01
				c0.47,1.28,1.41,2.29,2.49,2.28c-0.37,0.99,0.68,1.66,1.77,1.57c0.93-0.07,1.64-0.35,2.04-0.8
				C69.08,83.19,66.81,82.32,67.62,81.4z"/>
		</g>
	</g>
	<g>
		<path class="st24" d="M42.94,40.31l-4.86,1.3c-0.1,0.03-0.2-0.03-0.23-0.13l-1.8-6.74c-0.03-0.1,0.03-0.2,0.13-0.23l4.86-1.3
			c0.1-0.03,0.2,0.03,0.23,0.13l1.8,6.74C43.1,40.18,43.04,40.29,42.94,40.31z"/>
		
			<rect x="38.06" y="34.12" transform="matrix(0.9661 -0.2583 0.2583 0.9661 -8.4691 11.131)" class="st24" width="0.13" height="7.35"/>
	</g>
	<g>
		<path class="st19" d="M42.63,39.93l-4.86,1.3c-0.1,0.03-0.2-0.03-0.23-0.13l-1.8-6.74c-0.03-0.1,0.03-0.2,0.13-0.23l4.86-1.3
			c0.1-0.03,0.2,0.03,0.23,0.13l1.8,6.74C42.79,39.8,42.73,39.9,42.63,39.93z"/>
		
			<rect x="37.75" y="33.74" transform="matrix(0.9662 -0.2576 0.2576 0.9662 -8.3613 11.0051)" class="st43" width="0.13" height="7.35"/>
	</g>
	<path class="st24" d="M39.04,36.91l-5.79-3.4c-0.08-0.05-0.19-0.02-0.24,0.06l-1.92,3.27l0,0l-0.06,0.11l0,0l-0.47,0.8
		c-0.05,0.08-0.02,0.19,0.06,0.24l5.79,3.4c0.08,0.05,0.19,0.02,0.24-0.06l2.45-4.18C39.15,37.06,39.12,36.95,39.04,36.91z"/>
	<g>
		<path class="st24" d="M25.66,37.52c-0.21-1.04-1.13-1.82-2.24-1.82c-0.01,0-0.02,0-0.03,0c-0.58,0.01-1.1,0.23-1.5,0.6l-0.37-0.37
			c-0.1-0.1-0.27-0.1-0.38,0l-0.05,0.05c-0.1,0.11-0.1,0.27,0,0.38l0.39,0.39c0.01,0.01,0.02,0,0.03,0.01
			c-0.23,0.35-0.36,0.77-0.36,1.23c0,0.79,0.4,1.48,1.01,1.89c0.36,0.25,0.8,0.39,1.28,0.39s0.91-0.14,1.28-0.39
			c0.24-0.16,0.45-0.37,0.62-0.62c0.16-0.24,0.28-0.52,0.34-0.82c0.03-0.15,0.05-0.3,0.05-0.46C25.7,37.82,25.69,37.67,25.66,37.52z
			"/>
		<g>
			<circle class="st18" cx="23.08" cy="37.43" r="2.28"/>
			<path class="st44" d="M23.08,35.14c-0.01,0-0.02,0-0.04,0c1.21,0.02,2.18,1,2.18,2.21c0,1.22-0.99,2.21-2.21,2.21
				c-1.21,0-2.19-0.97-2.21-2.18c0,0.01,0,0.02,0,0.03c0,1.26,1.02,2.28,2.28,2.28c1.26,0,2.28-1.02,2.28-2.28
				C25.37,36.17,24.35,35.14,23.08,35.14z"/>
			<circle class="st15" cx="23.08" cy="37.43" r="1.79"/>
			<path class="st45" d="M24.83,37.47c0,0.93-0.76,1.69-1.69,1.69c-0.93,0-1.69-0.76-1.69-1.69c0-0.93,0.76-1.69,1.69-1.69
				C24.07,35.78,24.83,36.54,24.83,37.47z"/>
			<path class="st11" d="M24.51,37.43c0,0.79-0.64,1.42-1.42,1.42c-0.79,0-1.42-0.64-1.42-1.42c0-0.79,0.64-1.42,1.42-1.42
				C23.87,36.01,24.51,36.64,24.51,37.43z"/>
			<path class="st12" d="M21.89,37.54c0-0.72,0.59-1.31,1.31-1.31c0.7,0,1.27,0.56,1.3,1.25c0-0.02,0.01-0.04,0.01-0.06
				c0-0.79-0.64-1.42-1.42-1.42c-0.79,0-1.42,0.64-1.42,1.42c0,0.79,0.64,1.42,1.42,1.42c0.02,0,0.04,0,0.06-0.01
				C22.44,38.81,21.89,38.24,21.89,37.54z"/>
			<path class="st18" d="M21.19,35.38l0.37,0.37c0.11,0.11,0.11,0.29,0,0.39l-0.04,0.04c-0.11,0.11-0.29,0.11-0.4,0l-0.37-0.37
				c-0.11-0.11-0.11-0.29,0-0.39l0.04-0.04C20.9,35.27,21.08,35.27,21.19,35.38z"/>
		</g>
	</g>
	<g>
		<path class="st24" d="M57.63,66.1c0.87-0.61,1.22-1.77,0.78-2.78c0-0.01-0.01-0.02-0.02-0.03c-0.24-0.53-0.65-0.91-1.14-1.14
			l0.19-0.49c0.05-0.14-0.01-0.29-0.15-0.35l-0.07-0.03c-0.14-0.05-0.29,0.01-0.35,0.15l-0.2,0.51c0,0.01,0,0.02,0,0.03
			c-0.42-0.07-0.85-0.02-1.27,0.16c-0.72,0.31-1.2,0.96-1.34,1.68c-0.08,0.43-0.04,0.89,0.15,1.33c0.19,0.43,0.5,0.78,0.87,1.02
			c0.25,0.16,0.52,0.27,0.81,0.32c0.29,0.05,0.59,0.05,0.89-0.01c0.15-0.03,0.3-0.08,0.44-0.14C57.37,66.26,57.51,66.19,57.63,66.1z
			"/>
		<g>
			<path class="st18" d="M57.01,65.74c-1.16,0.5-2.5-0.03-3.01-1.18c-0.5-1.16,0.03-2.5,1.18-3.01c1.16-0.5,2.5,0.03,3.01,1.18
				C58.7,63.9,58.17,65.24,57.01,65.74z"/>
			<path class="st44" d="M58.2,62.74c-0.01-0.01-0.01-0.02-0.02-0.03c0.46,1.11-0.05,2.4-1.16,2.88c-1.12,0.49-2.43-0.03-2.91-1.15
				c-0.48-1.11,0.02-2.4,1.12-2.9c-0.01,0-0.02,0.01-0.03,0.01c-1.16,0.5-1.69,1.85-1.18,3.01c0.5,1.16,1.85,1.69,3.01,1.18
				C58.17,65.24,58.7,63.9,58.2,62.74z"/>
			<path class="st15" d="M56.82,65.29c-0.91,0.39-1.96-0.02-2.36-0.93c-0.39-0.91,0.02-1.96,0.93-2.36
				c0.91-0.39,1.96,0.02,2.36,0.93C58.14,63.84,57.72,64.9,56.82,65.29z"/>
			<path class="st45" d="M56.76,65.26c-0.86,0.37-1.85-0.02-2.22-0.88c-0.37-0.86,0.02-1.85,0.88-2.22
				c0.86-0.37,1.85,0.02,2.22,0.88C58,63.9,57.61,64.89,56.76,65.26z"/>
			<path class="st11" d="M56.67,64.95c-0.72,0.31-1.56-0.02-1.87-0.74c-0.31-0.72,0.02-1.56,0.74-1.87
				c0.72-0.31,1.56,0.02,1.87,0.74C57.72,63.8,57.39,64.64,56.67,64.95z"/>
			<path class="st12" d="M55.52,62.6c0.66-0.29,1.43,0.02,1.72,0.68c0.28,0.65,0,1.39-0.63,1.7c0.02-0.01,0.04-0.01,0.05-0.02
				c0.72-0.31,1.05-1.15,0.74-1.87c-0.31-0.72-1.15-1.05-1.87-0.74c-0.72,0.31-1.05,1.15-0.74,1.87c0.01,0.02,0.02,0.03,0.03,0.05
				C54.57,63.61,54.87,62.88,55.52,62.6z"/>
			<path class="st18" d="M57.23,61.08l-0.2,0.51c-0.05,0.14-0.21,0.21-0.35,0.15l-0.07-0.03c-0.14-0.05-0.21-0.21-0.15-0.35
				l0.2-0.51c0.05-0.14,0.21-0.21,0.35-0.15l0.07,0.03C57.21,60.79,57.28,60.95,57.23,61.08z"/>
		</g>
	</g>
	<g>
		<path class="st24" d="M30.79,63.49c-0.1-1.06-0.93-1.93-2.03-2.05c-0.01,0-0.02,0-0.03,0c-0.58-0.05-1.12,0.12-1.55,0.43
			l-0.33-0.41c-0.09-0.11-0.26-0.13-0.38-0.04l-0.06,0.05c-0.11,0.09-0.13,0.26-0.04,0.38l0.34,0.43c0.01,0.01,0.02,0.01,0.03,0.01
			c-0.26,0.33-0.44,0.73-0.49,1.18c-0.08,0.78,0.24,1.52,0.8,1.99c0.34,0.28,0.76,0.47,1.23,0.52c0.47,0.05,0.92-0.05,1.31-0.25
			c0.26-0.14,0.49-0.32,0.68-0.55c0.19-0.22,0.34-0.49,0.43-0.78c0.05-0.14,0.08-0.3,0.1-0.45C30.8,63.8,30.8,63.64,30.79,63.49z"/>
		<g>
			<path class="st18" d="M30.48,63.62c-0.13,1.25-1.26,2.16-2.51,2.03c-1.25-0.13-2.16-1.26-2.03-2.51
				c0.13-1.25,1.26-2.16,2.51-2.03C29.7,61.24,30.61,62.36,30.48,63.62z"/>
			<path class="st44" d="M28.45,61.1c-0.01,0-0.02,0-0.04,0c1.2,0.15,2.06,1.23,1.93,2.43c-0.13,1.22-1.22,2.1-2.44,1.97
				c-1.2-0.13-2.08-1.2-1.97-2.4c0,0.01-0.01,0.02-0.01,0.03c-0.13,1.25,0.77,2.38,2.03,2.51c1.25,0.13,2.38-0.77,2.51-2.03
				C30.61,62.36,29.7,61.24,28.45,61.1z"/>
			<path class="st15" d="M29.99,63.56c-0.11,0.98-0.99,1.7-1.97,1.59c-0.98-0.11-1.7-0.99-1.59-1.97c0.11-0.98,0.99-1.7,1.97-1.59
				C29.38,61.7,30.09,62.58,29.99,63.56z"/>
			<path class="st45" d="M29.93,63.6c-0.1,0.93-0.93,1.6-1.86,1.5c-0.93-0.1-1.6-0.93-1.5-1.86c0.1-0.93,0.93-1.6,1.86-1.5
				C29.36,61.84,30.03,62.67,29.93,63.6z"/>
			<path class="st11" d="M29.62,63.52c-0.08,0.78-0.78,1.35-1.56,1.26c-0.78-0.08-1.35-0.78-1.26-1.57
				c0.08-0.78,0.78-1.35,1.57-1.26C29.14,62.04,29.7,62.74,29.62,63.52z"/>
			<path class="st12" d="M27,63.35c0.08-0.72,0.72-1.24,1.44-1.16c0.7,0.08,1.21,0.69,1.16,1.39c0-0.02,0.01-0.04,0.01-0.05
				c0.08-0.78-0.48-1.48-1.26-1.56c-0.78-0.08-1.48,0.48-1.57,1.26c-0.08,0.78,0.48,1.48,1.26,1.57c0.02,0,0.04,0,0.06,0
				C27.42,64.68,26.93,64.05,27,63.35z"/>
			<path class="st18" d="M26.54,61.13l0.33,0.41c0.1,0.12,0.08,0.3-0.04,0.39l-0.04,0.03c-0.12,0.1-0.3,0.08-0.39-0.04l-0.33-0.41
				c-0.1-0.12-0.08-0.3,0.04-0.39l0.04-0.03C26.27,60.99,26.44,61.01,26.54,61.13z"/>
		</g>
	</g>
	<path class="st13" d="M86.92,50.53l0.07-2.31l-2.46-8.55l-0.83-0.02c-1.37,2.26-2.42,7.04-0.85,11.03l2.55,0.23L86.92,50.53z"/>
	<g>
		<g>
			<path class="st25" d="M67.18,49.43c-0.27,0.11-0.55,0.13-0.5,0.28c0.04,0.15,0.59,0.83,0.72,0.79c0.13-0.04,0.97-0.5,1-0.53
				c0.02-0.03-0.48-0.56-0.48-0.56L67.18,49.43z"/>
			<path class="st46" d="M67.37,49.54c0.53-0.15,1.74-0.45,1.81-0.54c0.06-0.09-0.09-0.47-0.31-0.39c-0.22,0.08-2.16,0.69-2.16,0.69
				L67.37,49.54z"/>
			<path class="st47" d="M66.21,49.44c0.04-0.1,0.25-0.32,0.38-0.36c0.13-0.04,0.19,0.34,0.19,0.34l-0.01,0.22L66.21,49.44z"/>
			<path class="st27" d="M71.25,52.19c0.31-0.44,0.52-0.91,0.73-1.39c-0.92-0.4-1.78-1.05-2.02-1.23c-0.24-0.19-0.75-0.34-1.23-0.39
				c-0.48-0.06-1.44-0.15-1.64-0.24c-0.2-0.09-0.69-0.27-0.55,0.1c0.1,0.26,0.34,0.49,0.72,0.56c0.38,0.07,0.8,0.21,0.89,0.28
				c0.09,0.07-0.13,0.18-0.18,0.23c-0.05,0.05-0.51,0.14-0.71,0.02c-0.19-0.11-0.49-0.49-0.49-0.49l-0.61,0.26
				c0,0-0.05,0.33,0.06,0.47c0.11,0.13,0.3,0.39,0.59,0.72c0.29,0.33,0.89,0.85,1.08,0.84c0.19-0.01,2.04-0.22,2.18-0.19
				c0.06,0.01,0.55,0.23,1.15,0.5C71.23,52.22,71.24,52.2,71.25,52.19z"/>
		</g>
		<g>
			<path class="st27" d="M73.5,40.08c-1.1,0.37-1.23,0.53-1.59,0.83c-0.35,0.3-0.84,0.81-1.65,1.2c-0.81,0.39-1.08,0.76-1.24,0.93
				c-0.16,0.17-0.52,0.73-0.7,0.53c-0.18-0.2,0.19-0.77,0.36-0.99c0.17-0.22,0.63-0.62,0.63-0.62s-0.78,0.51-1.08,0.69
				c-0.3,0.18-1.22,0.78-1.38,0.73s-0.26-0.27-0.16-0.4c0.11-0.13,0.69-0.51,1.1-0.84c0,0-0.38-0.14-0.41-0.32
				c-0.03-0.18,0.03-0.32,0.17-0.53c0,0-0.18-0.29,0.04-0.56c0,0-0.06-0.38,0.12-0.6c0.18-0.22,0.9-0.45,1.04-0.49
				c0.14-0.04,1.2-0.14,1.47-0.18c0.28-0.05,0.7-0.18,0.84-0.27c0.14-0.09,0.32-0.26,0.63-0.37c0.31-0.11,0.92-0.43,0.92-0.43
				L73.5,40.08z"/>
			<path class="st25" d="M67.62,42.04c0.03-0.1,0.19-0.27,0.48-0.36c0.32-0.1,1-0.37,1-0.37l-1.3,0.81
				C67.8,42.13,67.74,42.13,67.62,42.04z"/>
			<path class="st25" d="M68.85,40.65c0,0-1.06,0.49-1.3,0.63c0,0-0.04-0.07-0.06-0.17C67.82,40.97,68.85,40.65,68.85,40.65z"/>
			<path class="st25" d="M68.78,40.15c0,0-0.42,0.21-0.69,0.33c-0.27,0.12-0.5,0.24-0.5,0.24s-0.01-0.07-0.01-0.16
				C67.95,40.41,68.78,40.15,68.78,40.15z"/>
		</g>
		<path class="st8" d="M82.88,45.17c0,0-0.09,3.24,1.36,4.86c0,0-3.46,1.28-4.3,1.47c-0.85,0.19-1.76,0.52-1.95,0.46
			c-0.2-0.06-5.28-1.26-6.31-1.66c-0.96,0.4-1.14,2.01-1.2,2.09c0.88,0.39,2.27,0.88,2.49,0.97c0.37,0.16,4.72,1.62,4.98,1.69
			c0.48,0.12,5.07-0.79,5.85-1.01c0.78-0.22,6.29-1.39,7.42-1.89c1.13-0.5,2.7-1.79,2.58-7.34L82.88,45.17z"/>
		<path class="st8" d="M79.31,35.32c-0.26,0.07-5.91,2.51-7.4,3.02c-0.03,0.41,0.38,1.83,0.88,2.42c0.12-0.07,0.49-0.28,1.05-0.48
			c0.89-0.31,5.64-2.05,5.83-2.12c0.19-0.07,0.96,0.29,1.97,0.65c0.82,0.29,2.6,1,2.6,1c-1.52,1.62-1.37,5.36-1.37,5.36l10.91-0.36
			c-0.25-5.54-1.9-6.73-3.06-7.15c-1.16-0.42-6.33-1.73-7.13-1.89C81.89,35.41,80.36,35.05,79.31,35.32z"/>
		<path class="st46" d="M67.26,49.59c-0.24-0.05-0.42-0.16-0.55-0.3c-0.34,0.1-1.49,0.45-1.61,0.51c-0.15,0.07-0.64,0.3-0.62,0.38
			c0.01,0.05,0.49,0.01,0.8-0.05C65.58,50.07,67.26,49.59,67.26,49.59z"/>
		<polygon class="st18" points="85.41,42.47 83.01,45.17 86.26,47.78 		"/>
		<g>
			<path class="st27" d="M87.38,48.25c-0.4-0.11-2.1-0.57-2.41-2.3c0,0-0.28,0.03-0.44-0.17c-0.16-0.2-0.7-0.39-0.74-0.71
				c-0.04-0.32,0.6-0.67,0.67-0.83c0.08-0.16,0.29-0.2,0.29-0.2s0.04-2.26,2.43-2.61l0.74,6.36L87.38,48.25z"/>
			<path class="st27" d="M87.71,40.95c-0.11-0.2,0.29-0.11,0.74-0.31c0.45-0.2,1.11-0.22,1.22,0.23
				C89.77,41.32,87.71,40.95,87.71,40.95z"/>
			<path class="st27" d="M88.07,48.66C87.95,48.74,87.98,49,88.47,49c0.49,0,1.6,0.47,1.66-0.23C90.2,48.08,88.07,48.66,88.07,48.66
				z"/>
			<path class="st48" d="M87.34,47.43c0.07,0.67-0.34,1,0.28,1.22c0.61,0.22,2.96,0.55,4.51-0.76c1.54-1.31,1.69-3.57,1.24-4.78
				c-0.45-1.21-1.05-1.64-1.81-1.92c-0.76-0.28-2.35-0.51-3.5-0.29c-0.98,0.19-1.32,0.39-1.34,0.69c-0.02,0.3-1.1,1.22-0.74,3.34
				C86.26,46.6,87.3,47.06,87.34,47.43z"/>
			<path class="st48" d="M87.6,47.56c-0.01,0-0.03,0.01-0.11,0.06c-0.07,0.04-0.16,0.11-0.25,0.2c-0.17,0.16-0.24,0.4-0.24,0.4
				s0.01-0.25,0.15-0.47c0.07-0.11,0.15-0.21,0.22-0.28c0.06-0.06,0.14-0.12,0.14-0.11L87.6,47.56z"/>
			<path class="st49" d="M92.7,43.01c0.33,1.42-0.32,3.95-1.81,4.91c-1.49,0.96-3.56,0.55-3.56,0.01l0,0
				c-0.06,0.35-0.14,0.57,0.3,0.73c0.61,0.22,2.96,0.55,4.51-0.76c1.54-1.31,1.69-3.57,1.24-4.78c-0.45-1.21-1.05-1.64-1.81-1.92
				c-0.13-0.05-0.29-0.09-0.46-0.13C91.46,41.17,92.37,41.58,92.7,43.01z"/>
			<path class="st48" d="M87.59,47.58c0-0.01-0.08-0.01-0.23-0.08c-0.16-0.06-0.35-0.17-0.56-0.33c-0.42-0.32-0.86-0.91-1.01-1.59
				c-0.17-0.68-0.08-1.38,0.05-1.87c0.05-0.25,0.13-0.45,0.18-0.59c0.05-0.14,0.08-0.22,0.08-0.22s-0.02,0.08-0.07,0.22
				c-0.04,0.14-0.11,0.34-0.15,0.6c-0.11,0.49-0.16,1.19,0.03,1.84c0.17,0.65,0.61,1.19,1.02,1.47c0.2,0.14,0.39,0.24,0.51,0.28
				c0.12,0.05,0.22,0.06,0.22,0.06L87.59,47.58z"/>
		</g>
	</g>
	<path class="st10" d="M78.05,53.04c1.14-0.14,8.24-2.68,8.24-2.68s-2.48-0.91-3.27-5.19c0,0,0.59-4.3,2.69-5.72
		c0,0-4.72-2.07-5.57-2.26c-0.72-0.17-6.1,2.28-7.7,3.02c0.11,0.22,0.22,0.41,0.34,0.55c0.12-0.07,0.49-0.28,1.05-0.48
		c0.89-0.31,5.64-2.05,5.83-2.12c0.19-0.07,0.96,0.29,1.97,0.65c0.82,0.29,2.6,1,2.6,1c-1.52,1.63-1.37,5.36-1.37,5.36l0,0v0
		c0,0-0.09,3.24,1.36,4.86c0,0-3.46,1.28-4.3,1.47c-0.85,0.19-1.76,0.52-1.95,0.46c-0.2-0.06-5.28-1.26-6.31-1.66
		c-0.25,0.1-0.44,0.29-0.6,0.51C72.07,51.21,77.02,53.16,78.05,53.04z"/>
	<polygon class="st24" points="69.53,43.6 72.56,50.2 80.4,45.42 	"/>
	<g>
		<polygon class="st9" points="77.49,39.79 80.4,45.42 72.75,49.83 69.53,43.6 		"/>
		<polygon class="st2" points="79.75,45.26 72.98,49.16 70.2,43.78 77.25,40.43 		"/>
		<polygon class="st13" points="77.32,40.15 80.28,45.49 80.4,45.42 77.49,39.79 69.53,43.6 69.6,43.73 		"/>
		<polygon class="st3" points="73.41,48.91 70.79,43.48 70.2,43.78 72.98,49.16 		"/>
		<polygon class="st33" points="70.75,45.96 78.34,46.61 79.3,46.05 70.58,45.63 		"/>
		<polygon class="st33" points="70.25,45 80.14,44.92 79.41,43.52 70.15,44.8 		"/>
	</g>
	<g>
		<g>
			<path class="st27" d="M63.03,27.24c0.55,2.14,1.6,4.65,1.6,4.65s-1.61,1.46-2.52,2.52c-0.91,1.06-1.24,1.49-2.02,1.85
				c-0.78,0.36-0.82,0.54-1.62,0.52c-0.8-0.01-1.25-0.18-1.57-0.06c-0.33,0.12-0.52,0.26-0.81,0.34c-0.29,0.08-0.47,0.44-0.65,0.53
				c-0.18,0.09-0.24,0.18-0.19,0.32c0.05,0.15,0.31,0.19,0.31,0.19s-0.01,0.14,0.11,0.26c0.12,0.13,0.29,0.15,0.29,0.15
				s-0.13,0.36,0.31,0.6c0,0,0,0.51,0.49,0.52c0,0-0.07,0.04,0.13,0.28c0.19,0.24,0.77,0.02,1.01-0.06
				c0.24-0.09,0.23-0.01,0.66-0.22c0.43-0.21,0.83-0.32,1.08-0.51c0.25-0.19,0.4-0.52,0.7-0.65c0.3-0.12,4.08-2.43,5.29-3.23
				c1.21-0.8,2.07-1.36,2.29-1.77c0.22-0.41,0.29-0.42,0.11-1.44c-0.18-1.03-1.26-4.04-1.26-4.04L63.03,27.24z"/>
			<path class="st25" d="M55.66,37.82c0.06-0.05,0.51-0.31,0.64-0.39c0.14-0.09,0.61-0.28,0.71-0.28c0.1,0,0.58-0.15,0.58-0.15
				s-0.17,0.04-0.38,0.04c-0.21,0-0.36,0.04-0.66,0.14c-0.3,0.1-0.85,0.46-1.03,0.62c-0.17,0.16-0.28,0.12-0.28,0.12
				c0.05,0.15,0.31,0.19,0.31,0.19C55.55,38.01,55.61,37.87,55.66,37.82z"/>
			<path class="st25" d="M55.86,38.49c0.06,0.02,0.1,0.03,0.1,0.03c0.21-0.07,0.46-0.29,0.52-0.33c0.06-0.04,0.03-0.08,0.02-0.11
				C56.49,38.06,55.96,38.52,55.86,38.49z"/>
			<path class="st25" d="M56.88,38.82c-0.03-0.04-0.45,0.25-0.69,0.25c0.02,0.02,0.05,0.04,0.08,0.05c0,0,0.23-0.03,0.4-0.12
				C56.85,38.91,56.91,38.86,56.88,38.82z"/>
			<path class="st25" d="M57.09,39.5c-0.12,0.08-0.33,0.15-0.33,0.15s-0.02,0.01-0.01,0.05c0.19-0.02,0.56-0.19,0.54-0.24
				C57.27,39.41,57.21,39.41,57.09,39.5z"/>
			
				<linearGradient id="SVGID_2_" gradientUnits="userSpaceOnUse" x1="70.4817" y1="30.5353" x2="71.6736" y2="29.9208" gradientTransform="matrix(0.9943 0.107 -0.107 0.9943 -9.5218 0.625)">
				<stop  offset="0" style="stop-color:#DCA67A"/>
				<stop  offset="1" style="stop-color:#EFBB8F"/>
			</linearGradient>
			<path class="st50" d="M56.99,37.22c-0.11,0.04-0.16,0.1-0.1,0.31c0.06,0.21,0.12,0.19,0.14,0.36s0.05,0.39,0.19,0.5
				c0.15,0.1,0.16,0.24,0.21,0.43c0.05,0.19,0.21,0.21,0.23,0.33c0.03,0.12,0.13,0.38,0.24,0.49c0.12,0.11,0.51-0.21,0.75-0.45
				c0.23-0.24-0.05-1.56-0.36-1.8C57.98,37.15,57.33,37.1,56.99,37.22z"/>
		</g>
		<g>
			<path class="st27" d="M50.15,28.02c-1.22,1.84-1.06,2.71-1.06,2.71s1.05,1.91,1.56,3.21c0.52,1.3,0.69,1.81,1.31,2.41
				c0.62,0.59,0.6,0.78,1.36,1.02c0.76,0.25,1.24,0.24,1.51,0.46c0.27,0.22,0.4,0.41,0.65,0.58c0.25,0.17,0.3,0.56,0.44,0.71
				c0.14,0.15,0.17,0.25,0.07,0.37c-0.1,0.12-0.35,0.07-0.35,0.07s-0.04,0.13-0.19,0.21c-0.15,0.08-0.32,0.05-0.32,0.05
				s0.01,0.39-0.49,0.47c0,0-0.16,0.48-0.63,0.33c0,0,0.05,0.06-0.21,0.22c-0.26,0.17-0.73-0.23-0.93-0.39
				c-0.2-0.16-0.22-0.09-0.56-0.43c-0.34-0.34-0.68-0.57-0.85-0.83c-0.17-0.26-0.21-0.62-0.45-0.84c-0.24-0.21-3.06-3.63-3.95-4.78
				c-0.89-1.15-1.51-1.96-1.59-2.42c-0.07-0.46-0.14-0.49,0.36-1.4c0.5-0.91,1.46-2.53,1.46-2.53L50.15,28.02z"/>
			<path class="st25" d="M55.65,39.26c-0.03-0.07-0.38-0.45-0.48-0.58c-0.1-0.13-0.49-0.46-0.58-0.5c-0.09-0.04-0.5-0.33-0.5-0.33
				s0.15,0.09,0.34,0.16c0.2,0.07,0.33,0.15,0.58,0.35c0.25,0.19,0.66,0.71,0.77,0.92c0.11,0.21,0.22,0.2,0.22,0.2
				c-0.1,0.12-0.35,0.07-0.35,0.07C55.69,39.47,55.68,39.33,55.65,39.26z"/>
			<path class="st25" d="M55.24,39.83c-0.06,0-0.1-0.01-0.1-0.01c-0.18-0.13-0.34-0.42-0.38-0.48c-0.04-0.06,0-0.09,0.02-0.1
				C54.79,39.22,55.13,39.83,55.24,39.83z"/>
			<path class="st25" d="M54.17,39.8c0.04-0.03,0.35,0.38,0.57,0.47c-0.03,0.01-0.06,0.02-0.09,0.02c0,0-0.21-0.1-0.34-0.25
				C54.17,39.9,54.13,39.84,54.17,39.8z"/>
			<path class="st25" d="M53.75,40.38c0.09,0.12,0.27,0.25,0.27,0.25s0.01,0.02-0.01,0.05c-0.17-0.08-0.47-0.36-0.43-0.4
				C53.61,40.24,53.66,40.26,53.75,40.38z"/>
			
				<linearGradient id="SVGID_3_" gradientUnits="userSpaceOnUse" x1="-81.3415" y1="20.6695" x2="-80.1491" y2="20.0547" gradientTransform="matrix(-0.975 -0.2223 -0.2223 0.975 -20.8384 1.1631)">
				<stop  offset="0" style="stop-color:#DCA67A"/>
				<stop  offset="1" style="stop-color:#EFBB8F"/>
			</linearGradient>
			<path class="st51" d="M54.58,38.26c0.09,0.07,0.12,0.14-0.01,0.33c-0.13,0.18-0.17,0.14-0.26,0.3c-0.08,0.16-0.17,0.36-0.35,0.41
				c-0.18,0.05-0.23,0.17-0.34,0.34c-0.11,0.17-0.26,0.13-0.33,0.24c-0.07,0.11-0.24,0.32-0.39,0.38c-0.14,0.07-0.42-0.37-0.56-0.67
				c-0.14-0.3,0.55-1.46,0.93-1.59C53.67,37.87,54.3,38.03,54.58,38.26z"/>
		</g>
		<path class="st9" d="M46.31,32.79c0.13,0.32,2.84-1.2,2.96-1.71c0.02-0.1-0.23-0.33-0.09-0.65c0.55-1.34,2.05-4.01,2.05-4.01
			s1.56,1.29,2.76,1.49c0.78,0.13,1.39,0.23,2.41,0.34c0.54,0.06,1.19,0.12,2.05,0.19c2.49,0.2,4.25-1.49,4.25-1.49l1.82,4.83
			c-0.59,0.85,2.79,2.47,3.39,1.71c0.77-0.96-0.23-5.2-0.86-7.16c-1-3.15-1.31-4.19-2.63-5.52c-1.32-1.33-2.83-1.85-4.56-2.28
			c0,0-5.76-0.62-6.51-0.46c-0.75,0.16-3.95,1.35-4.52,2.79c-0.57,1.44-1.3,3.26-1.53,4.11c-0.23,0.85-1.48,4.06-1.89,5.35
			C45.07,31.42,46.15,32.39,46.31,32.79z"/>
		<g>
			<path class="st27" d="M60.27,21.88c-0.18,0.35-0.92,1.88-2.62,1.85c0,0-0.03,0.27-0.24,0.38c-0.21,0.12-0.5,0.59-0.81,0.56
				c-0.3-0.02-0.52-0.69-0.66-0.79c-0.14-0.1-0.13-0.31-0.13-0.31s-2.13-0.46-2.02-2.78l6.15,0.48L60.27,21.88z"/>
			<path class="st27" d="M53.43,20.22c-0.21,0.07-0.05-0.29-0.15-0.76c-0.11-0.46,0-1.09,0.44-1.11
				C54.16,18.33,53.43,20.22,53.43,20.22z"/>
			<path class="st27" d="M60.79,21.3c0.05,0.13,0.31,0.15,0.4-0.31c0.09-0.46,0.74-1.43,0.09-1.62
				C60.63,19.18,60.79,21.3,60.79,21.3z"/>
			<path class="st52" d="M59.49,21.76c0.65,0.05,0.88,0.5,1.21-0.04c0.33-0.54,1.07-2.7,0.12-4.41c-0.96-1.71-3.07-2.26-4.3-2.06
				c-1.23,0.2-1.75,0.69-2.15,1.36c-0.41,0.66-0.85,2.3-0.92,3.25c-0.07,0.96,0.17,1.8,0.45,1.88c0.28,0.07,0.75-0.43,1.14-0.38
				c0.38,0.06,0.64,1.07,1.84,1.21C58.49,22.77,59.13,21.73,59.49,21.76z"/>
			<path class="st53" d="M56.3,15.87c1.4-0.05,3.68,1.03,4.31,2.62c0.63,1.59-0.14,3.47-0.65,3.37v0c0.32,0.12,0.51,0.24,0.74-0.15
				c0.33-0.54,1.07-2.7,0.12-4.41c-0.96-1.71-3.07-2.26-4.3-2.06c-1.23,0.2-1.75,0.69-2.15,1.36c-0.07,0.11-0.14,0.26-0.21,0.41
				C54.33,16.71,54.88,15.92,56.3,15.87z"/>
		</g>
		<path class="st54" d="M64.49,31.57c-0.23-0.06-0.56,0.54-0.87,1.04c-0.29,0.48,3.03,2.13,3.4,1.91c0.37-0.22,1.02-0.69,1-1.03
			c-0.03-0.34-0.19-0.42-0.19-0.42L64.49,31.57z"/>
		<path class="st13" d="M64.12,28.44c-0.52-1.28-1.39-3.29-1.39-3.29s-2.69,2.77-5.87,2.43c-3.18-0.35-5.78-3.26-5.78-3.26
			s-3.03,5.49-2.83,6.57l0.9-0.19c-0.01-0.08-0.01-0.17,0.03-0.27c0.55-1.34,2.05-4.01,2.05-4.01s1.56,1.29,2.76,1.49
			c0.78,0.13,1.39,0.23,2.41,0.34c0.54,0.06,1.19,0.12,2.05,0.19c2.49,0.2,4.25-1.49,4.25-1.49l1.76,4.67
			c0.2,0.05,0.53,0.18,1.15,0.46C65.61,32.07,64.64,29.72,64.12,28.44z"/>
		<path class="st54" d="M49.15,30.59c0.22-0.13,0.58,0.86,0.56,1.06c-0.02,0.2-2.78,1.95-2.97,1.82c-0.19-0.12-1.1-1.16-1.01-1.39
			c0.09-0.22,1.49-0.82,1.91-0.99C48.06,30.94,49.15,30.59,49.15,30.59z"/>
		<path class="st9" d="M63.62,32.62c-0.09,0.14,0.14,0.38,0.51,0.64c0.08-0.3,0.82-1.32,1.48-1.19l0,0l-1.12-0.5
			C64.26,31.52,63.93,32.11,63.62,32.62z"/>
		<path class="st9" d="M49.71,31.65c0.02-0.2-0.34-1.19-0.56-1.06c0,0-0.45,0.15-0.89,0.29c0.1,0.42,0.82,1.01,1.01,1.15
			C49.53,31.85,49.7,31.7,49.71,31.65z"/>
	</g>
	<path class="st2" d="M62.12,43.04c0,0,0.93,0.97,0.85,3.74l2.42-0.87c0,0-1.05-2.79-2.77-3.23l0.87-0.62l-2.4-0.13l0.54,1.84
		L62.12,43.04z"/>
	<g>
		<path class="st2" d="M36.56,50.05c0,0,0,0.08,0,0.23c0,0.14,0.01,0.32,0.04,0.56c0.06,0.47,0.21,1.09,0.53,1.62
			c0.09,0.13,0.17,0.27,0.27,0.38c0.1,0.12,0.21,0.23,0.32,0.32c0.22,0.2,0.46,0.34,0.68,0.45c0.22,0.1,0.41,0.17,0.55,0.21
			c0.14,0.04,0.22,0.06,0.22,0.06l-0.02,0.13c0,0-0.08-0.01-0.23-0.04c-0.15-0.02-0.35-0.07-0.6-0.15c-0.24-0.09-0.52-0.21-0.79-0.4
			c-0.14-0.09-0.27-0.2-0.4-0.32C37,53,36.89,52.86,36.78,52.72c-0.44-0.56-0.69-1.24-0.82-1.75c-0.06-0.25-0.1-0.48-0.12-0.63
			c-0.02-0.14-0.03-0.23-0.03-0.23L36.56,50.05z"/>
		<g>
			<polygon class="st2" points="38.89,54.67 40.26,54.02 39.01,53.16 			"/>
		</g>
	</g>
	<g>
		<path class="st2" d="M44.57,44.54c0,0,0.02-0.05,0.06-0.14c0.04-0.09,0.11-0.23,0.19-0.38c0.17-0.3,0.46-0.69,0.84-0.96
			c0.19-0.13,0.4-0.24,0.61-0.3c0.21-0.07,0.41-0.09,0.58-0.1c0.17,0,0.31,0.01,0.41,0.03c0.1,0.01,0.15,0.02,0.15,0.02l-0.01,0.08
			c0,0-0.05,0-0.15,0c-0.09-0.01-0.23,0.01-0.38,0.03c-0.16,0.03-0.33,0.07-0.51,0.16c-0.18,0.08-0.34,0.2-0.49,0.33
			c-0.3,0.28-0.49,0.64-0.61,0.93c-0.06,0.14-0.09,0.26-0.12,0.34c-0.03,0.09-0.04,0.14-0.04,0.14L44.57,44.54z"/>
		<g>
			<polygon class="st2" points="47.21,43.15 48.01,42.88 47.37,42.32 			"/>
		</g>
	</g>
	<g>
		<path class="st2" d="M57.06,56.41c0,0-0.12,0.06-0.33,0.18c-0.22,0.11-0.55,0.27-0.95,0.43c-0.4,0.15-0.88,0.3-1.41,0.4
			c-0.27,0.04-0.54,0.09-0.82,0.09c-0.28,0.02-0.57,0-0.85-0.01c-0.28-0.05-0.57-0.07-0.84-0.16c-0.27-0.06-0.53-0.18-0.77-0.28
			c-0.24-0.11-0.46-0.25-0.67-0.37c-0.19-0.15-0.38-0.27-0.54-0.41c-0.31-0.28-0.56-0.53-0.71-0.72c-0.16-0.18-0.25-0.29-0.25-0.29
			l0.06-0.05c0,0,0.1,0.1,0.26,0.27c0.16,0.18,0.42,0.4,0.74,0.65c0.16,0.12,0.36,0.23,0.55,0.35c0.2,0.1,0.42,0.21,0.66,0.3
			c0.24,0.08,0.48,0.17,0.74,0.2c0.25,0.06,0.52,0.07,0.78,0.09c0.27-0.01,0.53-0.01,0.78-0.05c0.26-0.02,0.51-0.09,0.75-0.14
			c0.48-0.13,0.91-0.3,1.27-0.47c0.36-0.17,0.64-0.34,0.84-0.45c0.2-0.13,0.32-0.2,0.32-0.2L57.06,56.41z"/>
		<g>
			<polygon class="st2" points="49.71,54.95 48.32,54.35 48.5,55.85 			"/>
		</g>
	</g>
	<g>
		<path class="st23" d="M38.78,36.76l-2.45,4.17c-0.05,0.09-0.16,0.11-0.25,0.06l-5.78-3.39c-0.09-0.05-0.11-0.16-0.06-0.25
			l2.45-4.16c0.05-0.09,0.16-0.11,0.25-0.06l5.78,3.39C38.81,36.57,38.83,36.68,38.78,36.76z"/>
		
			<rect x="33.73" y="34.76" transform="matrix(0.5061 -0.8625 0.8625 0.5061 -16.3345 48.0579)" class="st39" width="0.12" height="7.06"/>
	</g>
</g>
</svg>
